<?xml version="1.0" standalone="no"?><!DOCTYPE svg PUBLIC "-//W3C//DTD SVG 1.1//EN" "http://www.w3.org/Graphics/SVG/1.1/DTD/svg11.dtd"><svg t="1703853223675" class="icon" viewBox="0 0 1433 1024" version="1.1" xmlns="http://www.w3.org/2000/svg" p-id="1546" xmlns:xlink="http://www.w3.org/1999/xlink" width="279.8828125" height="200"><path d="M1404.928 843.264h-143.1552v150.528a29.3888 29.3888 0 0 1-28.672 30.208h-28.672a29.3888 29.3888 0 0 1-28.672-30.1056v-150.528h-143.1552a29.3888 29.3888 0 0 1-28.672-30.208v-30.1056c0-16.5888 12.9024-30.1056 28.672-30.1056h143.2576v-150.528c0-16.6912 12.8-30.208 28.672-30.208h28.672c15.7696 0 28.5696 13.5168 28.5696 30.1056v150.528h143.1552c15.872 0 28.672 13.6192 28.672 30.208v30.1056a29.3888 29.3888 0 0 1-28.672 30.1056zM1089.9456 512v180.736H918.1184a29.3888 29.3888 0 0 0-28.672 30.1056v120.4224H57.344C25.7024 843.264 0 816.3328 0 783.0528V60.2112C0 27.0336 25.6 0 57.344 0h1147.1872c31.5392 0 57.2416 27.0336 57.2416 60.2112v421.6832h-143.1552a29.3888 29.3888 0 0 0-28.672 30.1056zM345.2928 210.8416a29.3888 29.3888 0 0 0-28.672-30.1056 29.3888 29.3888 0 0 0-28.672 30.1056v180.736h-85.8112V210.8416a29.3888 29.3888 0 0 0-28.672-30.1056 29.3888 29.3888 0 0 0-28.672 30.1056v421.5808c0 16.6912 12.8 30.208 28.672 30.208 15.872 0 28.672-13.5168 28.672-30.208V451.7888h85.9136v180.6336c0 16.6912 12.8 30.208 28.672 30.208 15.7696 0 28.672-13.5168 28.672-30.208V210.944z m229.1712-30.1056H402.432a29.3888 29.3888 0 0 0-28.672 30.1056c0 16.5888 12.9024 30.1056 28.672 30.1056h57.344v391.4752c0 16.6912 12.8 30.208 28.672 30.208 15.7696 0 28.672-13.5168 28.672-30.208V240.9472h57.2416c15.7696 0 28.672-13.5168 28.672-30.1056a29.3888 29.3888 0 0 0-28.672-30.1056z m257.7408 0H660.3776a29.3888 29.3888 0 0 0-28.672 30.1056c0 16.5888 12.8 30.1056 28.672 30.1056h57.2416v391.4752c0 16.6912 12.8 30.208 28.672 30.208 15.7696 0 28.672-13.5168 28.672-30.208V240.9472h57.2416c15.7696 0 28.672-13.5168 28.672-30.1056a29.3888 29.3888 0 0 0-28.672-30.1056z m286.4128 30.1056a29.3888 29.3888 0 0 0-28.672-30.1056H918.1184a29.3888 29.3888 0 0 0-28.672 30.1056v421.5808c0 16.6912 12.8 30.208 28.672 30.208 15.7696 0 28.672-13.5168 28.672-30.208V421.6832h143.1552c15.7696 0 28.672-13.5168 28.672-30.1056V210.8416z m-86.016 150.528h-57.2416a29.3888 29.3888 0 0 1-28.672-30.1056v-60.2112c0-16.5888 12.8-30.1056 28.672-30.1056h57.344c15.7696 0 28.672 13.5168 28.672 30.1056v60.2112a29.3888 29.3888 0 0 1-28.672 30.1056z" fill="#C58630" p-id="1547"></path></svg>