<?xml version="1.0" encoding="utf-8"?>
<!DOCTYPE svg PUBLIC "-//W3C//DTD SVG 20010904//EN" "http://www.w3.org/TR/2001/REC-SVG-20010904/DTD/svg10.dtd">
<svg version="1.0" xmlns="http://www.w3.org/2000/svg" width="402pt" height="402pt" viewBox="0 0 402 402" style="" preserveAspectRatio="xMidYMid meet">
<g fill="#B1E9E8FD" stroke="#B1E9E8FD">
<path d="M 1.007 138.894 C 1.028 275.988 1.039 276.802 3.014 276.286 C 4.106 276.000 5.000 275.411 5.000 274.977 C 5.000 274.543 5.970 274.441 7.156 274.751 C 8.726 275.162 9.100 274.971 8.531 274.050 C 7.971 273.145 8.282 272.953 9.625 273.376 C 12.243 274.199 20.450 271.550 22.914 269.086 C 24.603 267.397 25.433 267.214 27.621 268.046 C 29.082 268.601 30.474 268.859 30.714 268.619 C 30.954 268.379 30.104 267.829 28.825 267.396 C 26.788 266.707 26.933 266.595 30.000 266.486 C 31.925 266.418 34.400 266.025 35.500 265.612 C 36.783 265.131 36.604 265.427 35.000 266.439 L 32.500 268.016 35.500 267.354 C 37.150 266.990 38.791 266.247 39.148 265.703 C 39.504 265.158 40.783 264.971 41.990 265.287 C 44.072 265.832 44.098 265.766 42.500 264.000 C 40.905 262.238 40.927 262.168 42.908 262.686 C 44.108 263.000 45.000 262.757 45.000 262.117 C 45.000 261.502 45.788 261.036 46.750 261.079 C 47.795 261.126 47.997 261.361 47.250 261.662 C 46.563 261.940 46.000 262.536 46.000 262.988 C 46.000 264.315 54.109 262.843 58.995 260.630 C 61.473 259.508 63.838 258.682 64.250 258.795 C 64.663 258.908 65.000 258.395 65.000 257.655 C 65.000 256.222 68.103 253.000 69.484 253.000 C 69.938 253.000 69.495 253.900 68.500 255.000 C 67.505 256.100 67.140 257.000 67.690 257.000 C 68.240 257.000 69.446 256.165 70.370 255.143 C 71.914 253.438 71.919 253.178 70.437 251.948 C 68.976 250.735 69.026 250.535 70.963 249.818 C 72.285 249.329 72.872 249.398 72.501 249.998 C 71.865 251.028 77.307 250.297 80.000 248.991 C 80.825 248.591 83.200 247.956 85.278 247.581 C 87.383 247.201 88.785 246.461 88.444 245.909 C 88.065 245.296 88.817 245.167 90.423 245.570 C 94.002 246.468 100.853 245.153 98.931 243.936 C 98.029 243.366 97.941 243.025 98.691 243.015 C 99.346 243.007 100.141 243.420 100.458 243.933 C 100.775 244.446 102.404 244.826 104.077 244.779 C 105.751 244.731 106.633 244.391 106.039 244.024 C 104.603 243.136 108.167 239.000 110.367 239.000 C 111.268 239.000 112.000 238.200 112.000 237.216 C 112.000 236.234 113.350 234.634 115.000 233.659 C 118.056 231.854 118.968 230.000 116.800 230.000 C 115.867 230.000 115.867 229.733 116.800 228.800 C 117.733 227.867 118.000 227.867 118.000 228.800 C 118.000 230.810 119.731 230.137 120.316 227.899 C 120.618 226.744 121.315 226.076 121.864 226.416 C 122.413 226.755 123.149 226.568 123.500 226.000 C 123.851 225.432 124.526 225.207 125.000 225.500 C 125.474 225.793 126.187 225.506 126.585 224.862 C 127.021 224.157 126.877 223.958 126.224 224.362 C 125.627 224.731 124.856 224.575 124.510 224.016 C 124.165 223.457 123.346 223.007 122.691 223.015 C 121.958 223.025 122.077 223.439 123.000 224.091 C 124.284 225.000 124.288 225.095 123.028 224.752 C 122.218 224.532 121.606 223.373 121.667 222.176 C 121.728 220.979 121.828 220.243 121.889 220.539 C 121.950 220.835 122.974 220.170 124.165 219.061 C 125.619 217.706 127.095 217.237 128.665 217.631 C 130.060 217.981 131.000 217.771 131.000 217.108 C 131.000 216.499 130.578 216.112 130.062 216.250 C 129.479 216.406 129.479 215.933 130.062 215.000 C 130.896 213.667 131.109 213.667 131.985 215.000 C 132.526 215.825 132.976 216.027 132.985 215.450 C 132.993 214.872 132.460 213.860 131.800 213.200 C 130.874 212.274 130.871 211.729 131.786 210.814 C 132.701 209.899 132.619 209.236 131.425 207.917 C 130.573 206.976 129.619 203.572 129.303 200.353 C 128.987 197.134 128.276 193.927 127.722 193.226 C 127.168 192.525 126.982 191.685 127.308 191.359 C 127.634 191.032 125.336 188.844 122.201 186.495 C 108.917 176.545 107.987 174.583 108.182 156.919 C 108.245 151.188 108.342 142.675 108.398 138.000 C 108.454 133.325 108.169 128.321 107.764 126.881 C 107.192 124.848 107.573 123.674 109.466 121.631 C 110.807 120.184 111.428 119.000 110.845 119.000 C 110.263 119.000 110.043 118.330 110.357 117.512 C 110.671 116.694 110.438 116.131 109.839 116.262 C 109.240 116.393 108.523 115.875 108.245 115.111 C 107.904 114.171 108.162 113.982 109.043 114.527 C 109.818 115.006 109.669 114.365 108.673 112.943 C 107.725 111.590 107.000 111.157 107.000 111.944 C 107.000 112.708 106.711 113.044 106.357 112.691 C 106.004 112.337 106.182 111.475 106.754 110.774 C 107.879 109.394 107.716 95.762 106.535 92.500 C 106.030 91.104 106.099 90.902 106.765 91.831 C 107.476 92.824 107.868 92.411 108.311 90.197 C 108.637 88.567 109.216 85.989 109.598 84.468 C 110.089 82.508 109.958 81.908 109.146 82.410 C 108.516 82.799 108.000 82.641 108.000 82.059 C 108.000 81.477 108.788 80.993 109.750 80.985 C 110.852 80.975 111.083 80.697 110.376 80.235 C 109.757 79.831 109.039 78.150 108.781 76.500 C 108.522 74.850 108.505 74.096 108.743 74.825 C 109.638 77.565 112.955 72.820 113.613 67.859 C 113.968 65.187 114.676 63.000 115.188 63.000 C 115.699 63.000 115.771 62.438 115.346 61.751 C 114.922 61.064 114.558 59.720 114.537 58.764 C 114.517 57.808 114.275 56.977 114.000 56.917 C 113.725 56.858 113.806 56.620 114.181 56.388 C 114.555 56.157 115.144 56.425 115.490 56.984 C 116.778 59.068 117.585 57.889 117.190 54.500 C 116.960 52.529 117.225 51.000 117.797 51.000 C 118.356 51.000 118.599 52.013 118.338 53.250 C 117.918 55.239 117.993 55.296 118.985 53.742 C 119.603 52.775 119.856 51.575 119.547 51.076 C 119.238 50.577 119.505 48.893 120.139 47.334 C 120.774 45.775 121.375 43.825 121.475 43.000 C 121.576 42.175 121.735 41.893 121.829 42.372 C 121.923 42.852 122.675 42.685 123.500 42.000 C 124.325 41.315 125.053 40.923 125.118 41.128 C 125.184 41.332 125.187 41.172 125.126 40.772 C 125.023 40.099 130.334 36.934 131.490 36.980 C 131.770 36.991 131.663 36.947 131.250 36.882 C 130.838 36.816 130.165 36.815 129.757 36.879 C 129.348 36.943 129.162 36.021 129.344 34.830 C 129.569 33.351 129.918 33.058 130.442 33.905 C 131.005 34.817 131.595 34.595 132.661 33.073 C 133.719 31.564 133.781 31.000 132.890 31.000 C 132.217 31.000 132.003 30.663 132.415 30.252 C 132.827 29.840 133.759 30.317 134.486 31.311 C 135.320 32.452 136.050 32.728 136.463 32.060 C 136.823 31.477 136.694 31.000 136.176 31.000 C 135.657 31.000 134.998 30.100 134.710 29.000 C 134.143 26.833 135.510 26.204 136.341 28.250 C 136.726 29.200 137.090 29.151 137.858 28.048 C 138.413 27.249 138.661 26.260 138.407 25.850 C 138.154 25.440 138.827 25.274 139.902 25.481 C 140.978 25.688 142.876 24.975 144.121 23.895 C 145.365 22.816 146.995 22.168 147.744 22.455 C 148.492 22.742 148.829 22.532 148.493 21.989 C 148.157 21.445 148.414 21.000 149.063 21.000 C 149.897 21.000 149.841 20.501 148.872 19.308 C 147.922 18.136 147.887 17.848 148.759 18.373 C 150.278 19.285 154.235 18.189 153.531 17.050 C 153.257 16.606 154.321 15.986 155.896 15.671 C 157.470 15.356 159.380 14.477 160.138 13.719 C 160.897 12.960 162.139 12.546 162.898 12.799 C 163.793 13.098 164.010 12.825 163.514 12.023 C 162.952 11.114 163.346 10.975 165.000 11.500 C 166.533 11.987 167.032 11.861 166.566 11.107 C 166.190 10.498 166.359 9.944 166.941 9.875 C 168.285 9.716 169.129 9.477 171.000 8.723 C 171.825 8.390 175.123 7.602 178.329 6.972 C 181.535 6.341 183.866 5.533 183.509 5.176 C 183.152 4.819 184.579 3.772 186.680 2.850 C 190.290 1.266 185.294 1.169 95.743 1.079 L 0.986 0.983 1.007 138.894 M 107.000 136.941 C 107.000 140.759 106.550 144.160 106.000 144.500 C 105.367 144.891 105.000 142.344 105.000 137.559 C 105.000 133.186 105.422 130.000 106.000 130.000 C 106.571 130.000 107.000 132.980 107.000 136.941 M 104.000 175.059 C 104.000 175.577 103.325 176.000 102.500 176.000 C 100.954 176.000 100.513 174.820 101.639 173.694 C 102.438 172.895 104.000 173.798 104.000 175.059 M 158.441 13.468 C 155.902 15.389 154.416 15.408 156.000 13.500 C 156.685 12.675 157.951 12.000 158.814 12.000 C 160.069 12.000 159.995 12.293 158.441 13.468 M 109.450 120.077 C 108.928 120.119 107.710 120.304 106.745 120.489 C 105.780 120.673 105.249 120.407 105.564 119.896 C 105.880 119.385 106.557 119.226 107.069 119.543 C 107.581 119.859 108.000 119.551 108.000 118.859 C 108.000 117.880 108.267 117.867 109.200 118.800 C 109.860 119.460 109.973 120.034 109.450 120.077 "/></g>
<g fill="#08050CFD" stroke="#08050CFD">
<path d="M 211.527 1.807 C 211.146 2.188 209.859 2.599 208.667 2.719 C 204.698 3.120 200.527 3.823 198.000 4.516 C 196.625 4.893 194.375 5.323 193.000 5.472 C 191.625 5.621 190.275 5.853 190.000 5.989 C 189.725 6.126 189.115 6.168 188.645 6.083 C 188.174 5.999 187.162 6.451 186.395 7.087 C 185.628 7.724 185.000 7.910 185.000 7.500 C 185.000 7.090 184.345 7.299 183.544 7.964 C 182.743 8.628 181.649 8.901 181.113 8.570 C 180.577 8.238 179.868 8.405 179.537 8.940 C 179.206 9.475 178.202 9.631 177.304 9.286 C 176.118 8.831 175.898 9.026 176.500 10.000 C 177.105 10.979 176.880 11.168 175.664 10.701 C 174.748 10.350 174.000 10.546 174.000 11.138 C 174.000 11.730 173.339 11.960 172.532 11.651 C 171.725 11.341 170.794 11.525 170.463 12.060 C 170.132 12.595 169.494 12.805 169.044 12.527 C 168.595 12.249 167.654 12.713 166.953 13.557 C 166.253 14.400 165.077 14.860 164.340 14.577 C 163.603 14.294 163.000 14.499 163.000 15.031 C 163.000 15.564 162.663 15.941 162.250 15.870 C 160.909 15.636 155.000 18.415 155.000 19.278 C 155.000 19.740 154.550 19.840 154.000 19.500 C 153.450 19.160 153.000 19.359 153.000 19.941 C 153.000 20.523 152.373 21.000 151.607 21.000 C 150.841 21.000 149.930 21.739 149.583 22.643 C 149.237 23.547 148.666 24.000 148.316 23.649 C 147.966 23.299 146.967 24.022 146.097 25.256 C 144.975 26.847 144.487 27.063 144.421 26.000 C 144.350 24.867 144.135 24.937 143.542 26.287 C 143.111 27.270 141.447 28.751 139.846 29.580 C 138.164 30.449 137.225 31.555 137.622 32.197 C 138.038 32.871 137.854 33.028 137.155 32.596 C 136.454 32.163 135.178 33.279 133.902 35.441 C 132.747 37.399 131.373 39.000 130.849 39.000 C 130.325 39.000 129.422 40.359 128.843 42.021 C 128.264 43.683 126.924 45.505 125.867 46.071 C 124.809 46.637 124.208 47.528 124.531 48.050 C 124.854 48.573 124.710 49.000 124.211 49.000 C 123.213 49.000 119.349 56.995 119.750 58.230 C 119.887 58.653 119.523 59.000 118.941 59.000 C 118.359 59.000 118.141 59.419 118.457 59.931 C 118.774 60.443 118.568 61.149 118.000 61.500 C 117.432 61.851 117.226 62.557 117.543 63.069 C 117.859 63.581 117.716 64.000 117.226 64.000 C 116.375 64.000 116.033 65.380 115.925 69.250 C 115.898 70.213 115.529 71.000 115.105 71.000 C 114.680 71.000 114.294 71.563 114.247 72.250 C 114.199 72.938 113.864 74.625 113.501 76.000 C 112.456 79.966 111.876 83.232 111.548 87.000 C 111.380 88.925 111.153 90.500 111.042 90.500 C 110.932 90.500 110.742 92.652 110.620 95.283 C 110.499 97.914 110.084 99.751 109.700 99.366 C 108.736 98.403 108.833 101.407 109.993 108.496 C 110.533 111.794 111.431 114.644 111.988 114.829 C 112.544 115.015 113.000 115.818 113.000 116.615 C 113.000 117.411 113.675 118.322 114.500 118.638 C 115.325 118.955 116.000 119.657 116.000 120.199 C 116.000 120.741 116.900 122.329 118.000 123.727 C 119.100 125.126 120.007 125.872 120.015 125.385 C 120.024 124.898 120.463 125.175 120.992 126.000 C 121.522 126.825 121.709 128.288 121.410 129.250 C 121.110 130.213 121.280 131.000 121.788 131.000 C 122.295 131.000 122.663 134.782 122.605 139.405 C 122.547 144.027 122.814 147.615 123.198 147.378 C 123.581 147.141 123.720 147.859 123.505 148.973 C 123.290 150.088 123.566 151.000 124.116 151.000 C 124.667 151.000 124.840 151.450 124.500 152.000 C 124.160 152.550 124.359 153.000 124.941 153.000 C 125.523 153.000 125.888 153.542 125.750 154.205 C 125.613 154.867 126.063 155.486 126.750 155.580 C 127.438 155.673 128.477 155.806 129.059 155.875 C 129.641 155.944 129.840 156.450 129.500 157.000 C 128.674 158.337 129.662 158.261 132.316 156.785 C 133.759 155.983 133.991 155.554 133.000 155.520 C 131.857 155.481 131.801 155.278 132.766 154.666 C 133.463 154.224 133.774 153.443 133.457 152.931 C 133.141 152.419 133.389 152.000 134.008 152.000 C 134.680 152.000 134.878 151.192 134.500 150.000 C 134.109 148.769 134.320 148.000 135.049 148.000 C 135.704 148.000 136.019 147.182 135.755 146.171 C 135.060 143.512 137.157 141.213 140.019 141.498 C 142.797 141.774 143.493 142.127 142.000 142.500 C 140.777 142.806 142.612 143.465 145.750 143.848 C 146.437 143.931 146.887 144.563 146.750 145.250 C 146.607 145.963 147.498 146.500 148.825 146.500 C 150.115 146.500 150.783 146.889 150.325 147.374 C 149.858 147.869 150.477 147.948 151.750 147.557 C 153.878 146.903 154.000 147.139 154.000 151.933 C 154.000 154.720 154.410 157.000 154.912 157.000 C 155.414 157.000 155.702 158.112 155.553 159.472 C 155.391 160.947 155.691 161.691 156.298 161.316 C 156.925 160.928 157.097 161.522 156.747 162.861 C 156.422 164.102 156.784 165.641 157.589 166.446 C 158.365 167.222 159.000 168.639 159.000 169.595 C 159.000 170.551 159.297 171.036 159.660 170.673 C 160.023 170.310 161.001 170.984 161.833 172.172 C 163.063 173.929 163.080 174.179 161.923 173.511 C 161.140 173.060 161.789 174.076 163.365 175.770 C 164.940 177.463 166.818 178.623 167.537 178.347 C 168.257 178.071 169.743 178.743 170.839 179.839 C 171.936 180.936 173.096 181.571 173.417 181.250 C 173.738 180.929 174.000 181.150 174.000 181.740 C 174.000 182.346 174.937 182.568 176.156 182.249 C 177.386 181.927 178.062 182.091 177.729 182.629 C 177.381 183.192 180.130 183.517 184.555 183.435 C 188.630 183.359 191.635 182.939 191.232 182.501 C 190.829 182.063 191.513 181.954 192.751 182.259 C 194.137 182.600 194.762 182.423 194.376 181.800 C 193.986 181.168 194.536 181.035 195.837 181.448 C 197.462 181.964 198.985 181.037 202.712 177.268 C 205.345 174.604 206.150 174.017 204.500 175.962 L 201.500 179.500 205.201 176.102 C 207.236 174.233 208.870 172.433 208.832 172.102 C 208.596 170.041 209.157 168.979 210.155 169.595 C 210.835 170.016 211.039 169.872 210.651 169.245 C 209.830 167.916 210.930 164.839 211.991 165.494 C 212.987 166.110 213.970 162.440 213.485 159.920 C 213.281 158.864 213.539 158.000 214.057 158.000 C 214.576 158.000 215.000 156.666 215.000 155.035 C 215.000 153.196 215.664 151.754 216.750 151.236 C 219.656 149.851 228.254 150.626 229.543 152.390 C 230.178 153.258 230.991 153.676 231.349 153.318 C 231.707 152.960 232.000 153.668 232.000 154.892 C 232.000 156.121 231.552 156.841 231.000 156.500 C 230.383 156.119 230.000 157.843 230.000 161.000 C 230.000 163.897 230.403 165.869 230.929 165.544 C 231.451 165.221 231.691 166.291 231.477 167.985 C 231.267 169.643 231.550 171.000 232.107 171.000 C 232.663 171.000 232.840 171.450 232.500 172.000 C 232.160 172.550 232.434 173.000 233.108 173.000 C 233.782 173.000 234.082 173.251 233.776 173.558 C 233.469 173.864 234.497 175.552 236.060 177.308 C 237.623 179.063 238.240 180.275 237.430 180.000 C 235.245 179.258 237.941 181.461 240.500 182.508 C 241.652 182.980 241.905 183.364 241.096 183.414 C 239.935 183.485 239.950 183.714 241.188 184.741 C 242.011 185.424 242.980 185.687 243.342 185.325 C 243.704 184.963 244.000 185.218 244.000 185.892 C 244.000 186.566 244.403 186.869 244.895 186.565 C 245.388 186.260 246.066 186.731 246.404 187.609 C 246.753 188.521 247.658 188.961 248.508 188.635 C 249.329 188.320 250.000 188.499 250.000 189.031 C 250.000 189.564 250.338 189.947 250.750 189.882 C 251.163 189.816 251.725 189.864 252.000 189.987 C 253.575 190.690 267.740 190.389 267.291 189.662 C 266.993 189.180 267.762 189.107 269.000 189.500 C 270.686 190.035 271.053 189.894 270.461 188.937 C 269.910 188.046 270.144 187.841 271.234 188.259 C 272.190 188.626 274.289 187.555 276.648 185.497 C 278.766 183.648 280.275 182.771 280.000 183.549 C 279.725 184.327 280.591 183.847 281.924 182.482 C 283.258 181.117 283.979 180.000 283.528 180.000 C 283.077 180.000 283.940 178.858 285.446 177.462 C 287.020 176.004 287.946 174.302 287.624 173.462 C 287.315 172.658 287.485 172.000 288.000 172.000 C 288.515 172.000 288.678 171.325 288.362 170.500 C 288.045 169.674 288.332 169.000 289.000 169.000 C 289.668 169.000 289.960 168.339 289.651 167.532 C 289.341 166.725 289.490 165.815 289.982 165.511 C 290.474 165.207 290.706 164.067 290.496 162.979 C 290.273 161.819 290.658 161.000 291.426 161.000 C 292.290 161.000 292.620 162.009 292.393 163.956 C 292.204 165.582 292.469 167.172 292.981 167.488 C 293.493 167.805 293.677 168.679 293.388 169.431 C 293.100 170.183 293.325 171.083 293.888 171.431 C 294.452 171.779 294.659 172.725 294.349 173.532 C 294.040 174.339 294.311 175.000 294.952 175.000 C 295.593 175.000 295.840 174.550 295.500 174.000 C 295.160 173.450 295.411 173.000 296.058 173.000 C 296.775 173.000 297.045 172.017 296.751 170.476 C 296.485 169.088 296.665 167.707 297.150 167.407 C 297.636 167.107 297.793 166.474 297.500 166.000 C 297.207 165.526 297.432 164.851 298.000 164.500 C 298.568 164.149 298.774 163.443 298.457 162.931 C 298.141 162.419 298.385 162.000 299.000 162.000 C 299.615 162.000 299.859 161.581 299.543 161.069 C 299.226 160.557 299.386 159.880 299.897 159.564 C 301.227 158.742 305.151 150.378 304.940 148.814 C 304.514 145.653 304.968 144.568 306.200 145.800 C 306.860 146.460 307.069 147.000 306.665 147.000 C 306.260 147.000 306.480 148.013 307.152 149.250 C 308.308 151.377 308.397 151.281 308.779 147.502 C 309.001 145.304 309.704 143.173 310.341 142.768 C 310.979 142.362 311.152 142.024 310.727 142.015 C 310.302 142.007 310.601 140.988 311.391 139.750 C 312.420 138.139 312.718 135.369 312.439 130.000 C 311.950 120.599 311.854 120.000 310.833 120.000 C 308.989 120.000 310.184 118.079 313.250 116.115 C 315.038 114.970 316.107 114.026 315.628 114.017 C 315.148 114.008 315.199 113.438 315.741 112.750 C 316.852 111.342 316.800 111.732 317.496 99.500 C 317.777 94.550 318.131 88.775 318.281 86.666 C 318.485 83.826 318.095 82.586 316.778 81.881 C 314.613 80.722 314.464 77.690 316.489 76.009 C 317.308 75.329 317.751 74.405 317.473 73.956 C 317.195 73.506 317.405 72.868 317.940 72.537 C 318.475 72.206 318.652 71.257 318.334 70.427 C 317.994 69.543 318.250 69.039 318.952 69.209 C 319.635 69.375 319.517 68.948 318.676 68.212 C 317.867 67.504 316.292 66.749 315.176 66.534 C 312.333 65.986 307.489 62.670 308.863 62.212 C 309.489 62.004 310.000 61.196 310.000 60.417 C 310.000 59.638 310.389 59.000 310.863 59.000 C 311.592 59.000 311.690 57.056 311.128 53.750 C 311.057 53.338 310.325 53.000 309.500 53.000 C 308.675 53.000 308.000 52.550 308.000 52.000 C 308.000 51.450 307.663 51.066 307.250 51.147 C 306.838 51.228 304.563 50.941 302.195 50.510 C 299.297 49.983 298.053 49.305 298.386 48.437 C 298.658 47.727 298.233 46.608 297.441 45.951 C 296.648 45.293 296.000 44.101 296.000 43.301 C 296.000 41.617 290.673 36.000 289.077 36.000 C 288.485 36.000 288.000 35.580 288.000 35.067 C 288.000 34.554 286.988 33.794 285.750 33.378 C 282.115 32.156 281.000 32.114 281.000 33.195 C 281.000 33.756 280.380 33.976 279.622 33.685 C 278.864 33.394 277.739 33.661 277.122 34.278 C 276.293 35.107 276.000 34.956 276.000 33.700 C 276.000 32.765 275.523 32.000 274.941 32.000 C 274.359 32.000 274.160 31.550 274.500 31.000 C 274.840 30.450 274.672 30.000 274.126 30.000 C 273.581 30.000 272.838 29.066 272.476 27.925 C 272.114 26.783 271.574 26.093 271.276 26.391 C 270.978 26.689 269.862 25.822 268.795 24.466 C 267.728 23.110 267.197 22.000 267.616 22.000 C 268.035 22.000 267.411 21.100 266.230 20.000 C 265.050 18.900 263.625 18.000 263.065 18.000 C 262.505 18.000 261.309 16.875 260.408 15.500 C 259.507 14.125 258.133 13.000 257.354 13.000 C 256.575 13.000 255.679 12.328 255.364 11.506 C 255.048 10.684 254.388 10.260 253.895 10.565 C 253.403 10.869 253.000 10.641 253.000 10.059 C 253.000 9.477 252.357 9.000 251.571 9.000 C 250.786 9.000 249.436 8.293 248.571 7.429 C 247.707 6.564 247.000 6.169 247.000 6.551 C 247.000 6.933 246.325 6.685 245.500 6.000 C 244.675 5.315 244.000 5.087 244.000 5.493 C 244.000 5.898 242.988 5.570 241.750 4.764 C 240.513 3.958 238.713 3.416 237.750 3.560 C 236.788 3.705 236.000 3.509 236.000 3.126 C 236.000 2.268 235.044 2.160 222.360 1.578 C 216.783 1.322 211.908 1.425 211.527 1.807 M 264.489 71.178 C 264.116 71.550 265.204 71.636 266.906 71.368 C 268.876 71.057 270.000 71.304 270.000 72.047 C 270.000 72.689 270.661 72.960 271.468 72.651 C 272.275 72.341 273.190 72.498 273.500 73.000 C 273.810 73.502 274.725 73.659 275.532 73.349 C 276.339 73.040 277.000 73.270 277.000 73.862 C 277.000 74.453 277.622 74.699 278.382 74.407 C 279.919 73.817 285.000 78.052 285.000 79.924 C 285.000 80.581 285.443 80.844 285.985 80.509 C 286.596 80.132 286.738 81.059 286.360 82.950 C 285.942 85.040 286.141 86.000 286.992 86.000 C 287.741 86.000 288.026 86.793 287.710 88.000 C 287.423 89.100 287.643 90.000 288.201 90.000 C 288.758 90.000 288.972 90.631 288.676 91.402 C 288.380 92.173 288.437 93.103 288.802 93.468 C 289.167 93.833 289.329 98.781 289.163 104.464 C 288.964 111.263 289.240 115.030 289.970 115.482 C 290.713 115.941 290.853 118.174 290.394 122.233 C 289.891 126.682 290.013 128.110 290.854 127.590 C 291.677 127.082 292.000 129.014 292.000 134.441 C 292.000 139.225 291.600 142.000 290.911 142.000 C 290.209 142.000 289.943 144.133 290.161 148.002 C 290.348 151.303 290.271 154.003 289.991 154.002 C 289.161 153.999 286.818 149.848 287.347 149.319 C 287.615 149.052 286.858 147.858 285.667 146.667 C 284.277 145.277 283.978 144.500 284.834 144.500 C 285.567 144.500 284.783 143.477 283.092 142.226 C 281.400 140.975 280.125 139.400 280.258 138.726 C 280.391 138.052 279.842 137.644 279.038 137.821 C 278.234 137.997 276.997 137.348 276.288 136.379 C 275.580 135.411 275.000 134.961 275.000 135.381 C 275.000 135.801 273.853 135.243 272.450 134.140 C 271.048 133.036 269.023 132.303 267.950 132.510 C 266.878 132.716 266.000 132.574 266.000 132.193 C 266.000 131.812 263.525 131.500 260.500 131.500 C 257.475 131.500 255.000 131.866 255.000 132.313 C 255.000 132.760 254.213 132.993 253.250 132.830 C 252.288 132.667 250.375 133.307 249.000 134.251 C 247.625 135.196 246.607 135.542 246.738 135.020 C 246.869 134.499 246.309 134.328 245.494 134.641 C 244.679 134.954 244.260 135.612 244.565 136.105 C 245.047 136.885 243.783 137.387 241.892 137.166 C 241.557 137.127 239.982 138.529 238.392 140.282 C 236.705 142.140 236.356 142.850 237.555 141.984 C 238.685 141.168 238.235 141.797 236.555 143.382 C 234.875 144.967 234.107 145.925 234.850 145.511 C 235.929 144.910 235.981 145.167 235.111 146.792 C 234.495 147.943 233.258 148.680 232.261 148.490 C 231.293 148.305 230.136 148.119 229.691 148.077 C 229.246 148.034 229.190 147.502 229.566 146.893 C 230.036 146.133 229.505 146.015 227.875 146.517 C 226.569 146.919 225.845 146.885 226.266 146.442 C 226.687 145.998 225.009 145.549 222.536 145.445 C 219.813 145.330 218.279 145.642 218.645 146.235 C 219.013 146.830 218.407 146.947 217.100 146.532 C 215.917 146.156 215.074 146.221 215.225 146.675 C 215.376 147.129 215.050 147.583 214.500 147.684 C 213.950 147.786 213.632 147.223 213.794 146.434 C 213.955 145.645 213.632 145.000 213.075 145.000 C 212.518 145.000 212.350 144.251 212.701 143.336 C 213.102 142.292 212.943 141.917 212.275 142.330 C 211.689 142.692 210.954 142.321 210.641 141.506 C 210.316 140.660 210.584 140.126 211.266 140.262 C 211.923 140.393 210.894 138.978 208.980 137.118 C 207.066 135.257 206.175 134.097 207.000 134.539 C 207.908 135.026 207.711 134.445 206.500 133.067 C 205.253 131.647 204.490 131.300 204.474 132.145 C 204.460 132.890 203.623 132.266 202.615 130.759 C 201.606 129.251 200.380 128.265 199.891 128.568 C 199.401 128.870 199.000 128.615 199.000 128.000 C 199.000 127.385 198.586 127.138 198.081 127.450 C 197.575 127.763 196.562 127.452 195.831 126.759 C 195.099 126.067 193.713 125.463 192.750 125.417 C 191.788 125.371 191.338 125.191 191.750 125.018 C 192.163 124.844 189.463 124.655 185.750 124.597 C 182.038 124.539 179.000 124.817 179.000 125.214 C 179.000 125.612 178.338 125.683 177.529 125.373 C 176.721 125.063 174.860 125.752 173.395 126.904 C 171.929 128.057 170.098 129.000 169.325 129.000 C 167.782 129.000 159.509 137.045 159.812 138.250 C 159.915 138.663 159.550 139.000 159.000 139.000 C 158.450 139.000 158.053 139.338 158.118 139.750 C 158.433 141.743 157.899 143.056 157.000 142.500 C 156.450 142.160 156.000 142.359 156.000 142.941 C 156.000 143.523 155.213 143.993 154.250 143.985 C 152.754 143.972 152.718 143.828 154.000 143.000 C 155.173 142.242 154.914 142.027 152.809 142.015 C 151.329 142.007 149.761 141.438 149.324 140.750 C 148.728 139.811 148.520 139.873 148.489 141.000 C 148.460 142.074 148.109 141.932 147.254 140.500 C 146.598 139.400 146.047 138.817 146.030 139.205 C 146.014 139.592 144.763 138.713 143.250 137.250 C 141.738 135.787 140.619 135.152 140.764 135.838 C 140.961 136.768 140.538 136.823 139.101 136.054 C 138.036 135.484 137.324 134.234 137.510 133.261 C 137.695 132.293 137.958 131.725 138.095 132.000 C 138.231 132.275 138.403 131.825 138.477 131.000 C 138.552 130.175 139.166 128.488 139.842 127.250 C 140.517 126.013 140.803 125.000 140.476 125.000 C 140.149 125.000 140.234 124.438 140.665 123.750 C 141.095 123.063 141.503 122.050 141.571 121.500 C 141.640 120.950 141.771 120.725 141.863 121.000 C 141.955 121.275 142.457 120.825 142.979 120.000 C 143.628 118.973 143.544 118.473 142.714 118.414 C 142.046 118.366 142.288 117.980 143.250 117.557 C 144.213 117.133 145.000 116.084 145.000 115.226 C 145.000 114.369 145.276 113.943 145.613 114.280 C 145.950 114.617 147.986 112.667 150.136 109.947 C 152.287 107.226 154.472 105.000 154.992 105.000 C 155.512 105.000 155.650 104.251 155.299 103.336 C 154.849 102.164 155.032 101.902 155.916 102.448 C 156.853 103.027 157.095 102.319 156.866 99.666 C 156.697 97.709 156.853 95.814 157.211 95.456 C 157.569 95.098 157.620 94.173 157.324 93.402 C 157.028 92.631 157.311 92.000 157.952 92.000 C 158.593 92.000 158.840 91.550 158.500 91.000 C 158.160 90.450 158.385 90.000 159.000 90.000 C 159.615 90.000 159.877 89.610 159.583 89.134 C 159.288 88.657 159.937 87.462 161.024 86.479 C 162.111 85.495 163.000 85.071 163.000 85.536 C 163.000 86.002 163.610 85.548 164.355 84.529 C 165.170 83.414 166.354 82.922 167.323 83.294 C 168.210 83.634 169.190 83.502 169.500 83.000 C 169.810 82.498 170.730 82.343 171.545 82.656 C 172.359 82.968 173.676 82.684 174.472 82.023 C 175.352 81.293 177.109 81.085 178.959 81.491 C 180.864 81.909 182.000 81.760 182.000 81.092 C 182.000 80.427 183.695 80.197 186.500 80.481 C 189.367 80.771 191.000 80.540 191.000 79.843 C 191.000 79.165 192.124 78.975 193.961 79.342 C 195.609 79.672 197.210 79.469 197.570 78.886 C 197.927 78.310 199.332 78.117 200.693 78.459 C 202.329 78.870 202.943 78.716 202.504 78.006 C 202.072 77.308 202.743 77.096 204.420 77.400 C 205.839 77.657 207.000 77.421 207.000 76.875 C 207.000 76.329 207.450 76.160 208.000 76.500 C 208.550 76.840 209.000 76.593 209.000 75.952 C 209.000 75.260 209.699 75.054 210.720 75.446 C 211.665 75.809 212.089 75.756 211.661 75.328 C 211.233 74.900 213.834 74.538 217.441 74.525 C 222.034 74.507 224.000 74.875 224.000 75.750 C 224.000 76.438 223.564 77.000 223.031 77.000 C 222.499 77.000 222.350 77.749 222.701 78.664 C 223.168 79.880 222.979 80.105 222.000 79.500 C 221.021 78.895 220.832 79.120 221.299 80.336 C 221.650 81.251 221.475 82.000 220.910 82.000 C 220.344 82.000 220.131 82.403 220.435 82.895 C 220.740 83.388 220.204 84.136 219.244 84.559 C 217.867 85.166 217.815 85.364 219.000 85.500 C 220.185 85.636 220.133 85.834 218.756 86.441 C 217.796 86.864 217.260 87.612 217.565 88.105 C 217.869 88.597 217.390 89.000 216.500 89.000 C 215.610 89.000 215.118 89.381 215.405 89.847 C 215.693 90.313 214.525 92.000 212.810 93.597 C 211.094 95.194 210.063 95.825 210.517 95.000 C 211.009 94.107 210.423 94.309 209.067 95.500 C 207.602 96.787 207.273 97.531 208.145 97.586 C 209.042 97.644 208.930 97.925 207.813 98.419 C 206.885 98.830 206.371 99.803 206.670 100.583 C 206.969 101.362 206.828 102.000 206.357 102.001 C 205.886 102.001 205.500 104.963 205.500 108.583 C 205.500 112.203 205.838 114.828 206.250 114.416 C 206.663 114.004 207.000 114.390 207.000 115.274 C 207.000 116.159 206.663 117.091 206.250 117.345 C 205.838 117.600 205.725 117.852 206.000 117.905 C 206.275 117.957 206.537 118.338 206.582 118.750 C 206.626 119.163 207.030 120.809 207.480 122.408 C 208.245 125.135 208.380 125.201 209.648 123.467 C 211.308 121.197 211.440 118.610 209.845 119.595 C 209.107 120.052 208.963 119.868 209.447 119.086 C 209.862 118.414 210.832 118.105 211.601 118.400 C 212.371 118.696 213.000 118.475 213.000 117.910 C 213.000 117.344 213.450 117.160 214.000 117.500 C 214.550 117.840 215.000 117.615 215.000 117.000 C 215.000 116.385 215.520 116.203 216.155 116.595 C 216.825 117.010 217.039 116.872 216.666 116.268 C 216.131 115.403 218.095 114.254 221.167 113.635 C 222.664 113.332 223.248 111.892 223.435 108.048 C 223.543 105.821 223.237 104.000 222.756 104.000 C 222.275 104.000 222.136 104.412 222.447 104.915 C 222.758 105.418 222.573 105.980 222.035 106.165 C 221.498 106.349 220.919 107.400 220.750 108.500 C 220.316 111.323 219.025 113.134 217.931 112.457 C 217.419 112.141 217.000 112.385 217.000 113.000 C 217.000 113.615 216.550 113.840 216.000 113.500 C 215.450 113.160 215.000 113.434 215.000 114.108 C 215.000 114.782 214.721 115.055 214.381 114.714 C 214.040 114.374 213.108 114.749 212.310 115.548 C 210.414 117.443 208.906 117.409 209.643 115.487 C 209.963 114.655 209.692 113.334 209.042 112.551 C 208.158 111.486 208.144 110.600 208.986 109.026 C 209.605 107.870 209.831 106.041 209.488 104.962 C 209.121 103.805 209.328 103.000 209.992 103.000 C 210.611 103.000 210.832 102.538 210.483 101.972 C 209.845 100.941 215.905 94.425 217.181 94.770 C 218.311 95.075 223.056 88.900 222.448 87.915 C 222.137 87.412 222.385 87.000 223.000 87.000 C 223.615 87.000 223.840 86.550 223.500 86.000 C 223.160 85.450 223.385 85.000 224.000 85.000 C 224.615 85.000 224.840 84.550 224.500 84.000 C 224.160 83.450 224.306 83.000 224.824 83.000 C 225.343 83.000 226.002 83.900 226.290 85.000 C 226.577 86.100 226.357 87.000 225.799 87.000 C 225.242 87.000 225.045 87.675 225.362 88.500 C 225.678 89.325 225.515 90.000 225.000 90.000 C 224.485 90.000 224.350 90.749 224.701 91.664 C 225.163 92.868 224.976 93.103 224.024 92.515 C 223.014 91.891 222.859 92.303 223.358 94.290 C 223.715 95.713 223.575 97.144 223.047 97.471 C 221.902 98.179 222.803 101.000 224.174 101.000 C 224.703 101.000 224.861 100.138 224.527 99.084 C 224.192 98.030 224.367 96.891 224.916 96.552 C 225.464 96.213 225.636 95.163 225.297 94.218 C 224.941 93.224 225.061 92.848 225.583 93.326 C 226.081 93.781 226.488 93.557 226.492 92.826 C 226.501 91.295 228.433 91.001 228.635 92.500 C 228.833 93.972 228.981 94.908 229.151 95.750 C 229.234 96.163 229.977 96.994 230.804 97.598 C 231.630 98.202 232.009 99.176 231.648 99.761 C 231.286 100.347 232.122 101.652 233.506 102.663 C 234.890 103.673 236.232 105.592 236.488 106.927 C 236.744 108.261 237.379 109.779 237.898 110.298 C 238.418 110.818 238.606 111.864 238.315 112.622 C 238.024 113.380 238.270 114.000 238.863 114.000 C 239.455 114.000 239.880 115.575 239.808 117.500 C 239.735 119.425 239.272 121.000 238.779 121.000 C 238.286 121.000 238.141 121.419 238.457 121.931 C 238.774 122.443 238.595 123.132 238.060 123.463 C 237.525 123.794 237.328 124.690 237.621 125.455 C 237.919 126.232 237.242 127.335 236.088 127.953 C 234.950 128.562 234.128 129.416 234.260 129.850 C 234.392 130.285 233.150 131.833 231.500 133.289 C 229.085 135.421 228.853 135.943 230.309 135.968 C 231.304 135.986 231.860 135.582 231.544 135.072 C 231.229 134.562 231.990 133.833 233.235 133.454 C 236.123 132.574 239.105 129.978 238.448 128.917 C 238.171 128.468 238.969 127.531 240.222 126.836 C 241.748 125.989 242.005 125.531 241.000 125.449 C 239.796 125.351 239.833 125.180 241.187 124.581 C 242.115 124.170 242.629 123.197 242.330 122.417 C 242.031 121.638 242.175 121.000 242.650 121.000 C 243.126 121.000 243.523 118.750 243.533 116.000 C 243.543 113.250 243.154 111.000 242.669 111.000 C 242.183 111.000 242.045 110.325 242.362 109.500 C 242.678 108.675 242.453 108.000 241.862 108.000 C 241.270 108.000 241.052 107.308 241.376 106.462 C 241.711 105.589 241.328 104.679 240.489 104.357 C 239.676 104.046 239.231 103.435 239.500 103.000 C 239.769 102.565 239.288 101.941 238.431 101.612 C 237.574 101.283 237.123 100.610 237.428 100.116 C 237.733 99.623 236.749 98.394 235.241 97.385 C 233.550 96.254 233.075 95.528 234.000 95.491 C 234.967 95.451 234.691 94.980 233.222 94.164 C 231.969 93.469 231.208 92.472 231.531 91.950 C 231.854 91.427 231.566 91.000 230.892 91.000 C 230.218 91.000 229.963 90.704 230.325 90.342 C 230.687 89.980 230.525 89.133 229.966 88.459 C 229.244 87.589 229.422 87.052 230.578 86.608 C 231.514 86.249 231.964 85.348 231.635 84.492 C 231.320 83.671 231.525 83.000 232.090 83.000 C 232.656 83.000 232.840 82.550 232.500 82.000 C 232.160 81.450 232.333 81.000 232.884 81.000 C 233.434 81.000 233.712 80.100 233.500 79.000 C 233.288 77.900 233.566 77.000 234.116 77.000 C 234.667 77.000 234.871 76.601 234.570 76.113 C 233.952 75.114 236.224 72.940 238.200 72.641 C 238.915 72.532 240.022 72.117 240.660 71.719 C 241.298 71.320 242.490 71.251 243.309 71.565 C 244.128 71.879 245.026 71.768 245.304 71.318 C 245.583 70.868 250.166 70.500 255.489 70.500 C 260.811 70.500 264.862 70.805 264.489 71.178 M 232.000 73.885 C 232.000 74.372 231.391 76.219 230.647 77.989 C 229.584 80.517 229.156 80.850 228.654 79.540 C 228.302 78.623 227.567 78.150 227.021 78.487 C 226.373 78.888 226.348 78.301 226.950 76.801 C 227.680 74.982 227.886 74.879 227.937 76.309 C 228.021 78.729 230.000 77.418 230.000 74.941 C 230.000 73.873 230.450 73.000 231.000 73.000 C 231.550 73.000 232.000 73.398 232.000 73.885 M 216.609 92.913 C 215.794 92.026 215.801 91.875 216.637 92.342 C 217.262 92.692 218.387 92.335 219.137 91.548 C 220.219 90.413 220.213 90.531 219.109 92.119 C 218.039 93.658 217.463 93.841 216.609 92.913 "/></g>
<g fill="#B1E9E8FD" stroke="#B1E9E8FD">
<path d="M 240.325 2.162 C 241.255 2.682 242.465 2.830 243.015 2.491 C 243.564 2.151 245.256 2.758 246.775 3.840 C 248.293 4.921 250.428 5.924 251.518 6.069 C 253.092 6.278 253.039 6.172 251.261 5.553 C 250.030 5.124 249.268 4.375 249.568 3.890 C 250.305 2.697 256.000 5.726 256.000 7.310 C 256.000 8.002 257.358 9.371 259.018 10.351 C 260.677 11.332 261.741 12.611 261.380 13.193 C 260.926 13.928 261.278 13.944 262.527 13.245 C 264.160 12.331 264.056 12.091 261.415 10.682 L 258.500 9.127 261.500 9.495 C 263.150 9.697 264.107 9.893 263.628 9.931 C 263.148 9.969 263.276 10.627 263.912 11.394 C 264.805 12.470 264.703 13.154 263.463 14.394 C 262.385 15.473 262.264 16.000 263.095 16.000 C 263.776 16.000 263.996 16.338 263.583 16.750 C 263.171 17.163 263.433 17.520 264.167 17.545 C 264.900 17.570 265.381 18.152 265.236 18.838 C 265.030 19.811 265.449 19.830 267.137 18.926 C 269.050 17.903 269.221 17.983 268.596 19.610 C 268.030 21.084 268.449 20.957 270.687 18.976 C 272.612 17.273 272.942 17.149 271.743 18.579 C 270.784 19.722 270.000 21.211 270.000 21.888 C 270.000 22.564 269.480 22.797 268.845 22.405 C 268.129 21.962 267.962 22.130 268.406 22.848 C 268.901 23.648 269.689 23.702 270.961 23.021 C 272.340 22.283 272.947 22.421 273.389 23.570 C 273.725 24.446 273.553 24.842 272.989 24.493 C 271.491 23.568 271.804 24.748 273.616 26.865 C 274.626 28.044 275.998 28.552 277.272 28.218 C 278.654 27.857 279.082 28.059 278.597 28.842 C 278.204 29.479 278.332 30.000 278.882 30.000 C 279.432 30.000 280.239 29.438 280.675 28.750 C 281.221 27.889 281.473 28.116 281.484 29.476 C 281.496 30.948 282.264 31.512 284.492 31.685 C 286.429 31.835 287.009 31.623 286.135 31.084 C 285.356 30.602 285.192 29.999 285.747 29.656 C 286.620 29.117 288.519 32.053 288.873 34.489 C 288.952 35.034 289.683 35.484 290.497 35.489 C 291.312 35.495 291.870 35.934 291.739 36.464 C 291.607 36.995 292.664 37.445 294.087 37.464 C 296.251 37.494 296.656 37.941 296.557 40.190 C 296.466 42.270 296.730 42.639 297.720 41.817 C 298.703 41.001 299.151 41.506 299.648 43.990 C 300.142 46.458 301.118 47.569 303.764 48.675 C 305.672 49.472 307.879 49.877 308.669 49.574 C 309.467 49.267 309.833 49.462 309.493 50.011 C 309.157 50.555 309.298 51.000 309.806 51.000 C 310.314 51.000 311.943 51.954 313.426 53.121 L 316.122 55.241 314.052 57.445 C 312.913 58.657 312.275 59.942 312.634 60.301 C 312.993 60.659 312.527 61.244 311.598 61.601 C 310.048 62.195 310.062 62.355 311.767 63.549 C 312.961 64.386 314.137 64.526 315.062 63.940 C 315.853 63.440 316.050 62.983 315.500 62.924 C 314.950 62.865 315.963 62.608 317.750 62.353 C 320.706 61.931 321.000 62.125 321.000 64.503 C 321.000 65.941 320.590 66.864 320.088 66.554 C 319.586 66.244 319.276 66.677 319.400 67.517 C 319.523 68.356 319.976 68.696 320.408 68.272 C 320.839 67.847 321.036 68.625 320.846 70.000 C 320.656 71.375 319.938 72.556 319.250 72.625 C 318.563 72.694 318.338 72.860 318.750 72.993 C 319.163 73.127 319.838 73.184 320.250 73.118 C 321.397 72.937 321.160 73.827 319.306 76.656 C 317.745 79.038 317.740 79.337 319.235 80.430 C 320.541 81.385 320.807 83.171 320.592 89.559 C 320.334 97.205 320.285 97.351 319.266 93.500 C 318.683 91.300 318.163 90.400 318.110 91.500 C 318.056 92.600 318.685 94.789 319.506 96.364 C 321.200 99.612 321.507 103.432 320.000 102.500 C 319.431 102.148 319.000 103.009 319.000 104.500 C 319.000 105.940 319.385 106.880 319.856 106.589 C 320.326 106.298 320.499 107.172 320.239 108.530 C 319.979 109.889 319.383 111.000 318.915 111.000 C 318.446 111.000 318.350 111.749 318.701 112.664 C 319.180 113.912 318.985 114.114 317.920 113.472 C 316.711 112.743 316.703 112.866 317.862 114.295 C 318.727 115.361 318.921 116.618 318.394 117.737 C 317.612 119.399 317.580 119.399 317.826 117.750 C 318.190 115.315 316.769 115.565 314.991 118.250 C 312.868 121.454 311.822 124.228 313.013 123.492 C 313.556 123.156 314.000 123.484 314.000 124.219 C 314.000 124.954 314.912 126.337 316.028 127.292 C 317.484 128.538 317.812 129.517 317.190 130.764 C 316.715 131.719 315.524 135.551 314.544 139.280 C 312.954 145.329 312.532 146.003 310.631 145.539 C 309.459 145.253 309.065 145.278 309.756 145.595 C 310.447 145.912 310.758 146.582 310.447 147.085 C 310.136 147.588 310.449 148.000 311.141 148.000 C 312.120 148.000 312.133 148.267 311.200 149.200 C 309.668 150.732 309.634 152.344 311.155 151.405 C 311.789 151.012 312.048 151.113 311.730 151.629 C 311.411 152.144 309.692 152.551 307.911 152.533 C 304.683 152.500 304.671 152.518 304.515 157.786 C 304.407 161.397 303.792 163.614 302.571 164.786 C 300.873 166.416 300.818 166.378 301.444 164.000 C 302.079 161.593 302.045 161.573 300.547 163.448 C 299.629 164.597 299.248 166.237 299.620 167.448 C 299.965 168.576 299.874 169.144 299.416 168.708 C 298.958 168.273 298.478 169.623 298.349 171.708 C 297.861 179.634 296.694 185.559 295.309 187.149 C 293.472 189.259 293.439 197.443 295.259 199.750 C 295.917 200.585 295.891 201.000 295.181 201.000 C 294.597 201.000 293.840 200.550 293.500 200.000 C 293.160 199.450 292.369 199.000 291.741 199.000 C 290.890 199.000 290.888 199.288 291.735 200.135 C 292.581 200.981 292.470 201.879 291.299 203.666 C 290.436 204.984 290.012 206.346 290.359 206.692 C 290.705 207.038 290.010 207.812 288.814 208.411 C 287.618 209.010 286.309 210.739 285.905 212.254 C 285.501 213.769 284.007 216.391 282.585 218.081 C 281.163 219.771 280.000 221.826 280.000 222.648 C 280.000 223.470 279.299 224.844 278.442 225.700 C 277.586 226.557 277.134 227.907 277.439 228.701 C 277.744 229.495 277.500 231.067 276.897 232.193 C 276.204 233.488 276.178 234.008 276.828 233.606 C 277.394 233.257 278.144 233.877 278.495 234.985 C 278.847 236.093 279.442 237.000 279.817 237.000 C 280.193 237.000 280.500 238.350 280.500 240.000 C 280.500 241.650 280.050 242.904 279.500 242.786 C 278.950 242.669 279.031 242.901 279.681 243.303 C 280.330 243.704 281.144 243.575 281.490 243.016 C 281.835 242.457 282.597 242.000 283.181 242.000 C 283.852 242.000 283.785 242.554 283.000 243.500 C 281.951 244.764 282.143 245.000 284.225 245.000 C 285.583 245.000 287.732 245.900 289.000 247.000 C 290.268 248.100 291.800 249.007 292.403 249.015 C 293.006 249.024 292.825 249.510 292.000 250.096 C 290.852 250.912 291.164 251.016 293.334 250.541 C 295.370 250.095 295.963 250.252 295.439 251.098 C 294.905 251.962 295.751 252.113 298.605 251.662 C 300.910 251.298 301.714 251.374 300.573 251.849 C 298.873 252.556 298.840 252.725 300.291 253.281 C 301.196 253.629 302.202 253.482 302.527 252.956 C 302.852 252.430 303.654 252.007 304.309 252.015 C 305.147 252.026 305.115 252.275 304.203 252.854 C 303.165 253.512 303.213 253.932 304.442 254.952 C 305.287 255.653 305.779 256.548 305.536 256.942 C 305.293 257.335 306.648 257.605 308.547 257.542 C 310.446 257.479 312.000 257.691 312.000 258.013 C 312.000 258.335 313.582 259.170 315.516 259.869 C 317.449 260.569 318.776 261.554 318.464 262.059 C 318.150 262.566 318.664 262.682 319.612 262.319 C 320.682 261.908 321.085 262.054 320.682 262.705 C 320.255 263.396 321.493 263.586 324.337 263.265 C 327.328 262.928 329.088 263.231 330.118 264.261 C 332.250 266.393 338.401 269.459 337.446 267.913 C 336.895 267.021 337.174 266.853 338.418 267.330 C 339.378 267.699 340.788 268.000 341.550 268.000 C 342.377 268.000 342.703 268.611 342.357 269.511 C 341.942 270.593 342.236 270.847 343.389 270.404 C 344.275 270.064 345.000 270.227 345.000 270.765 C 345.000 271.304 346.800 272.032 349.000 272.384 C 351.200 272.736 353.000 273.468 353.000 274.012 C 353.000 274.555 353.563 275.003 354.250 275.006 C 354.938 275.010 356.784 275.682 358.354 276.501 C 359.924 277.320 361.611 277.740 362.104 277.436 C 362.597 277.131 363.000 277.328 363.000 277.874 C 363.000 278.419 364.013 279.181 365.250 279.567 C 366.488 279.954 367.791 280.722 368.146 281.275 C 368.501 281.828 372.101 282.271 376.146 282.260 C 380.859 282.247 382.782 282.531 381.500 283.050 C 379.707 283.776 379.689 283.867 381.321 283.930 C 382.323 283.968 383.878 283.265 384.777 282.366 C 385.781 281.362 386.550 281.150 386.772 281.816 C 387.013 282.538 387.934 282.595 389.531 281.988 C 391.999 281.050 394.047 282.354 391.756 283.405 C 391.065 283.722 391.513 283.730 392.750 283.423 C 395.110 282.838 395.906 284.417 393.750 285.407 C 393.063 285.723 393.548 285.719 394.828 285.398 C 396.679 284.935 397.110 285.194 396.927 286.658 C 396.801 287.671 397.226 289.625 397.872 291.000 L 399.046 293.500 398.504 290.750 C 398.206 289.238 398.369 288.000 398.866 288.000 C 399.363 288.000 399.613 291.219 399.421 295.152 C 399.228 299.086 399.491 303.023 400.005 303.902 C 400.587 304.897 400.951 248.076 400.970 153.250 L 401.000 1.000 323.750 1.079 C 281.263 1.122 247.063 1.385 247.750 1.662 C 248.438 1.940 249.000 2.595 249.000 3.119 C 249.000 3.642 247.988 3.509 246.750 2.824 C 245.513 2.138 243.180 1.496 241.567 1.396 C 239.246 1.253 238.987 1.413 240.325 2.162 M 294.000 34.122 C 294.000 34.857 294.605 34.771 295.750 33.872 C 297.323 32.639 297.366 32.671 296.177 34.191 C 295.449 35.120 294.212 35.635 293.427 35.334 C 291.802 34.710 291.489 33.000 293.000 33.000 C 293.550 33.000 294.000 33.505 294.000 34.122 M 266.750 16.583 C 265.797 17.536 263.886 15.993 264.597 14.844 C 265.019 14.161 265.578 14.178 266.296 14.896 C 266.885 15.485 267.089 16.244 266.750 16.583 "/></g>
<g fill="#08050CFD" stroke="#08050CFD">
<path d="M 133.000 217.668 C 131.625 219.116 130.500 220.721 130.500 221.234 C 130.500 221.747 130.196 221.863 129.825 221.492 C 129.454 221.120 127.942 222.642 126.465 224.873 C 124.989 227.104 122.225 230.116 120.325 231.566 C 118.424 233.016 117.108 234.442 117.402 234.735 C 117.695 235.028 117.109 236.317 116.100 237.600 C 115.091 238.883 114.003 239.669 113.681 239.348 C 113.360 239.027 112.805 239.927 112.449 241.349 C 112.092 242.770 111.282 243.836 110.650 243.717 C 110.017 243.597 109.597 244.017 109.717 244.650 C 109.961 245.945 105.423 247.380 103.954 246.472 C 103.429 246.147 102.438 246.238 101.750 246.674 C 101.063 247.109 99.375 247.564 98.000 247.686 C 95.676 247.891 92.614 248.413 89.000 249.221 C 88.175 249.405 86.938 249.908 86.250 250.337 C 85.563 250.767 85.000 250.851 85.000 250.524 C 85.000 250.197 83.988 250.491 82.750 251.177 C 81.513 251.863 80.163 252.329 79.750 252.212 C 79.338 252.096 79.000 252.477 79.000 253.059 C 79.000 253.641 78.550 253.840 78.000 253.500 C 77.450 253.160 77.000 253.385 77.000 254.000 C 77.000 254.615 76.550 254.840 76.000 254.500 C 75.450 254.160 75.000 254.304 75.000 254.820 C 75.000 255.335 73.557 256.355 71.793 257.086 C 70.029 257.816 67.744 259.256 66.716 260.284 C 65.687 261.313 64.205 261.909 63.423 261.609 C 62.640 261.308 62.000 261.574 62.000 262.198 C 62.000 262.822 61.704 263.037 61.342 262.675 C 60.980 262.313 60.080 262.519 59.342 263.131 C 58.604 263.744 58.000 263.953 58.000 263.597 C 58.000 263.240 56.637 263.654 54.971 264.515 C 53.304 265.377 51.504 265.812 50.971 265.482 C 50.437 265.152 49.438 265.233 48.750 265.663 C 48.063 266.092 46.825 266.585 46.000 266.759 C 43.875 267.205 41.586 267.808 41.000 268.076 C 40.725 268.202 40.050 268.409 39.500 268.537 C 38.950 268.665 38.275 268.856 38.000 268.961 C 37.725 269.067 36.825 269.317 36.000 269.518 C 35.175 269.719 33.375 270.161 32.000 270.500 C 30.625 270.839 28.951 271.228 28.279 271.363 C 27.607 271.498 26.776 271.891 26.431 272.235 C 26.086 272.580 25.219 272.638 24.503 272.363 C 23.788 272.088 22.917 272.325 22.569 272.888 C 22.221 273.452 21.321 273.677 20.569 273.388 C 19.817 273.100 18.901 273.352 18.532 273.948 C 18.163 274.545 17.443 274.774 16.931 274.457 C 16.419 274.141 16.000 274.333 16.000 274.884 C 16.000 275.434 15.100 275.712 14.000 275.500 C 12.900 275.288 12.000 275.587 12.000 276.164 C 12.000 276.742 11.339 276.960 10.532 276.651 C 9.725 276.341 8.787 276.536 8.448 277.084 C 8.109 277.633 7.007 277.820 6.000 277.500 C 4.993 277.180 3.874 277.394 3.515 277.976 C 3.156 278.557 2.443 278.774 1.931 278.457 C 1.360 278.105 1.000 301.708 1.000 339.456 L 1.000 401.030 58.540 400.984 C 90.186 400.958 115.845 400.558 115.558 400.094 C 115.272 399.631 116.161 398.039 117.535 396.557 C 118.909 395.074 119.803 393.490 119.522 393.036 C 119.241 392.581 119.688 391.950 120.515 391.633 C 121.342 391.315 121.902 390.501 121.759 389.823 C 121.617 389.145 122.063 388.514 122.750 388.420 C 123.438 388.327 124.477 388.194 125.059 388.125 C 125.641 388.056 125.799 387.484 125.410 386.854 C 124.911 386.048 125.486 385.905 127.351 386.373 C 128.989 386.784 130.000 386.627 130.000 385.960 C 130.000 385.367 130.403 385.131 130.895 385.435 C 131.388 385.740 132.136 385.204 132.559 384.244 C 133.136 382.934 133.349 382.868 133.414 383.977 C 133.476 385.046 134.099 384.810 135.673 383.120 C 136.869 381.837 138.331 381.087 138.923 381.453 C 139.516 381.819 140.000 381.615 140.000 381.000 C 140.000 380.385 140.409 380.135 140.910 380.444 C 142.256 381.276 145.086 379.948 144.385 378.814 C 144.039 378.255 144.790 377.979 146.141 378.169 C 147.996 378.429 148.454 378.073 148.286 376.500 C 147.885 372.756 146.839 363.511 146.419 360.000 C 145.669 353.724 144.149 342.576 143.419 338.000 C 143.199 336.625 142.801 333.925 142.535 332.000 C 141.663 325.716 140.559 319.319 139.556 314.747 C 139.285 313.511 138.820 310.930 138.523 309.012 C 138.226 307.093 137.743 304.767 137.450 303.842 C 137.156 302.917 136.710 301.224 136.458 300.080 C 136.206 298.936 135.775 297.100 135.500 296.000 C 135.225 294.900 134.801 293.098 134.557 291.996 C 134.313 290.894 133.886 289.625 133.609 289.176 C 133.331 288.727 132.879 287.266 132.603 285.930 C 132.328 284.593 131.831 282.375 131.500 281.000 C 130.923 278.605 130.697 277.604 129.469 272.000 C 127.865 264.683 127.311 249.368 128.419 243.000 C 129.803 235.046 132.606 227.000 133.992 227.000 C 134.767 227.000 136.312 223.166 136.108 221.750 C 136.049 221.338 136.450 221.000 137.000 221.000 C 137.550 221.000 138.000 220.523 138.000 219.941 C 138.000 219.359 137.615 219.120 137.144 219.411 C 136.674 219.702 136.501 218.828 136.761 217.470 C 137.368 214.297 136.139 214.361 133.000 217.668 "/></g>
<g fill="#08050CFD" stroke="#08050CFD">
<path d="M 270.923 231.250 C 270.881 231.388 270.681 232.392 270.478 233.482 C 270.275 234.572 269.632 235.623 269.048 235.817 C 268.465 236.012 268.242 236.582 268.553 237.085 C 268.864 237.588 268.656 238.000 268.090 238.000 C 267.525 238.000 267.322 238.675 267.638 239.500 C 267.955 240.325 267.689 241.000 267.048 241.000 C 266.407 241.000 266.160 241.450 266.500 242.000 C 266.840 242.550 266.656 243.000 266.090 243.000 C 265.525 243.000 265.322 243.675 265.638 244.500 C 265.955 245.325 265.689 246.000 265.048 246.000 C 264.407 246.000 264.141 246.419 264.457 246.931 C 264.774 247.443 264.568 248.149 264.000 248.500 C 263.432 248.851 263.226 249.557 263.543 250.069 C 263.859 250.581 263.593 251.000 262.952 251.000 C 262.311 251.000 262.045 251.675 262.362 252.500 C 262.678 253.325 262.453 254.000 261.862 254.000 C 261.270 254.000 261.045 254.675 261.362 255.500 C 261.678 256.325 261.453 257.000 260.862 257.000 C 260.270 257.000 260.040 257.661 260.349 258.468 C 260.659 259.275 260.464 260.213 259.916 260.552 C 259.367 260.891 259.214 262.099 259.575 263.235 C 260.119 264.949 259.912 265.181 258.365 264.590 C 256.804 263.993 256.860 264.213 258.708 265.938 C 259.923 267.072 261.385 268.000 261.958 268.000 C 262.531 268.000 263.000 268.477 263.000 269.059 C 263.000 269.641 263.450 269.840 264.000 269.500 C 264.550 269.160 265.000 269.359 265.000 269.941 C 265.000 270.523 265.675 271.000 266.500 271.000 C 267.325 271.000 268.000 271.477 268.000 272.059 C 268.000 272.641 268.366 272.892 268.812 272.616 C 269.259 272.340 270.904 273.213 272.468 274.557 C 274.032 275.901 275.868 277.000 276.549 277.000 C 277.229 277.000 278.045 277.675 278.362 278.500 C 278.678 279.325 279.836 280.000 280.935 280.000 C 282.919 280.000 282.918 280.024 280.867 283.500 C 279.732 285.425 279.088 287.000 279.436 287.000 C 279.785 287.000 279.510 288.013 278.825 289.250 C 278.141 290.488 277.695 292.063 277.834 292.750 C 277.974 293.438 277.660 294.000 277.137 294.000 C 276.615 294.000 276.423 294.900 276.710 296.000 C 276.998 297.100 276.806 298.000 276.283 298.000 C 275.382 298.000 275.037 299.325 274.923 303.230 C 274.895 304.182 274.444 305.226 273.920 305.549 C 273.396 305.873 273.238 306.577 273.570 307.113 C 273.901 307.649 273.727 308.630 273.183 309.294 C 272.639 309.957 272.055 311.850 271.885 313.500 C 271.715 315.150 271.182 317.043 270.702 317.706 C 270.221 318.370 270.130 319.402 270.500 320.000 C 270.870 320.598 270.645 321.723 270.000 322.500 C 269.355 323.277 269.118 324.382 269.473 324.956 C 269.828 325.530 269.593 326.000 268.952 326.000 C 268.311 326.000 268.024 326.620 268.315 327.378 C 268.606 328.136 268.339 329.261 267.722 329.878 C 267.105 330.495 266.927 331.000 267.326 331.000 C 267.725 331.000 267.353 332.350 266.500 334.000 C 265.647 335.650 265.196 337.000 265.497 337.000 C 265.799 337.000 265.359 338.048 264.520 339.330 C 263.680 340.611 263.295 341.961 263.663 342.330 C 264.032 342.698 263.782 343.000 263.108 343.000 C 262.434 343.000 262.160 343.450 262.500 344.000 C 262.840 344.550 262.641 345.000 262.059 345.000 C 261.477 345.000 261.000 345.675 261.000 346.500 C 261.000 347.325 260.550 348.000 260.000 348.000 C 259.450 348.000 259.000 348.675 259.000 349.500 C 259.000 350.325 258.550 351.000 258.000 351.000 C 257.450 351.000 257.000 351.675 257.000 352.500 C 257.000 353.325 256.523 354.000 255.941 354.000 C 255.359 354.000 255.160 354.450 255.500 355.000 C 255.840 355.550 255.641 356.000 255.059 356.000 C 254.477 356.000 254.000 356.675 254.000 357.500 C 254.000 358.325 253.523 359.000 252.941 359.000 C 252.359 359.000 252.160 359.450 252.500 360.000 C 252.840 360.550 252.615 361.000 252.000 361.000 C 251.385 361.000 251.160 361.450 251.500 362.000 C 251.840 362.550 251.672 363.000 251.126 363.000 C 250.228 363.000 249.335 364.844 248.220 369.000 C 247.998 369.825 247.687 374.590 247.527 379.588 C 247.368 384.587 246.923 389.668 246.538 390.880 C 246.153 392.093 246.139 394.865 246.507 397.042 L 247.176 401.000 324.106 401.000 L 401.036 401.000 400.980 355.465 C 400.939 322.135 400.624 310.114 399.804 310.621 C 399.057 311.083 398.872 310.597 399.249 309.157 C 399.559 307.972 399.397 306.745 398.890 306.432 C 398.382 306.118 398.226 305.443 398.543 304.931 C 398.859 304.419 398.593 304.000 397.952 304.000 C 397.311 304.000 397.040 303.339 397.349 302.532 C 397.659 301.725 397.502 300.810 397.000 300.500 C 396.498 300.190 396.341 299.275 396.651 298.468 C 396.960 297.661 396.689 297.000 396.048 297.000 C 395.407 297.000 395.160 296.550 395.500 296.000 C 395.840 295.450 395.669 295.000 395.121 295.000 C 394.573 295.000 394.182 294.213 394.253 293.250 C 394.324 292.288 393.569 290.263 392.576 288.750 C 390.844 286.112 390.428 286.000 382.385 286.000 C 376.921 286.000 374.000 285.614 374.000 284.893 C 374.000 284.284 373.339 284.040 372.532 284.349 C 371.725 284.659 370.779 284.452 370.431 283.888 C 370.083 283.325 369.183 283.100 368.431 283.388 C 367.679 283.677 366.794 283.475 366.463 282.940 C 366.132 282.405 365.443 282.226 364.931 282.543 C 364.419 282.859 364.000 282.615 364.000 282.000 C 364.000 281.385 363.581 281.141 363.069 281.457 C 362.557 281.774 361.868 281.595 361.537 281.060 C 361.206 280.525 360.347 280.313 359.628 280.589 C 358.909 280.865 357.765 280.422 357.087 279.605 C 356.409 278.788 355.215 278.364 354.435 278.663 C 353.655 278.963 352.751 278.514 352.426 277.667 C 352.101 276.820 351.197 276.371 350.417 276.670 C 349.638 276.969 349.000 276.689 349.000 276.048 C 349.000 275.407 348.550 275.160 348.000 275.500 C 347.450 275.840 347.000 275.656 347.000 275.090 C 347.000 274.525 346.325 274.322 345.500 274.638 C 344.675 274.955 344.000 274.689 344.000 274.048 C 344.000 273.407 343.550 273.160 343.000 273.500 C 342.450 273.840 342.000 273.615 342.000 273.000 C 342.000 272.385 341.550 272.160 341.000 272.500 C 340.450 272.840 340.000 272.656 340.000 272.090 C 340.000 271.525 339.325 271.322 338.500 271.638 C 337.675 271.955 337.000 271.689 337.000 271.048 C 337.000 270.407 336.550 270.160 336.000 270.500 C 335.450 270.840 335.000 270.593 335.000 269.952 C 335.000 269.311 334.325 269.045 333.500 269.362 C 332.675 269.678 332.000 269.475 332.000 268.910 C 332.000 268.344 331.550 268.160 331.000 268.500 C 330.450 268.840 330.000 268.615 330.000 268.000 C 330.000 267.385 329.581 267.141 329.069 267.457 C 328.557 267.774 327.851 267.568 327.500 267.000 C 327.149 266.432 326.443 266.226 325.931 266.543 C 325.419 266.859 325.000 266.615 325.000 266.000 C 325.000 265.385 324.588 265.136 324.085 265.447 C 323.582 265.758 323.013 265.540 322.821 264.962 C 322.628 264.384 321.465 263.835 320.235 263.743 C 319.006 263.650 318.000 263.145 318.000 262.621 C 318.000 262.096 317.704 261.963 317.342 262.325 C 316.980 262.687 316.080 262.481 315.342 261.869 C 314.604 261.256 314.000 261.051 314.000 261.413 C 314.000 261.774 312.988 261.509 311.750 260.823 C 310.513 260.137 309.163 259.671 308.750 259.788 C 308.338 259.904 308.000 259.475 308.000 258.833 C 308.000 258.192 307.716 257.951 307.369 258.298 C 307.021 258.645 305.784 258.399 304.619 257.750 C 303.453 257.102 302.275 256.539 302.000 256.500 C 301.725 256.461 300.488 255.867 299.250 255.179 C 298.013 254.492 297.000 254.226 297.000 254.587 C 297.000 254.949 296.396 254.744 295.658 254.131 C 294.920 253.519 294.020 253.313 293.658 253.675 C 293.296 254.037 293.000 253.782 293.000 253.108 C 293.000 252.434 292.550 252.160 292.000 252.500 C 291.450 252.840 291.000 252.656 291.000 252.090 C 291.000 251.525 290.325 251.322 289.500 251.638 C 288.675 251.955 288.000 251.689 288.000 251.048 C 288.000 250.407 287.616 250.119 287.146 250.410 C 286.677 250.700 284.567 249.402 282.458 247.526 C 280.349 245.650 278.182 244.388 277.642 244.721 C 277.079 245.069 276.919 244.654 277.267 243.747 C 277.634 242.790 277.208 241.871 276.187 241.419 C 274.839 240.823 274.802 240.652 276.000 240.571 C 277.146 240.493 277.201 240.280 276.234 239.666 C 275.537 239.224 275.226 238.443 275.543 237.931 C 275.859 237.419 275.633 237.000 275.039 237.000 C 274.444 237.000 274.158 235.915 274.400 234.576 C 274.681 233.031 274.296 231.944 273.338 231.576 C 271.708 230.951 271.043 230.861 270.923 231.250 "/></g>
<g fill="#F1C1A1FD" stroke="#F1C1A1FD">
<path d="M 114.206 124.852 C 113.205 125.486 112.948 130.423 113.072 146.586 C 113.223 166.156 113.383 167.832 115.564 172.664 C 117.690 177.376 125.473 185.000 128.156 185.000 C 130.693 185.000 136.005 202.888 137.455 216.317 C 138.079 222.100 141.565 231.036 146.144 238.591 C 149.983 244.924 161.931 258.403 162.872 257.461 C 163.217 257.116 163.500 257.255 163.500 257.771 C 163.500 259.582 176.899 269.412 184.678 273.309 C 191.732 276.841 199.777 279.273 202.298 278.635 C 203.995 278.205 204.541 277.270 204.677 274.561 C 204.775 272.627 205.825 267.322 207.011 262.772 C 208.893 255.553 209.079 253.003 208.473 242.744 C 207.877 232.658 208.016 230.625 209.451 228.435 C 210.762 226.433 211.806 225.949 214.289 226.191 C 218.506 226.603 219.967 229.710 219.985 238.316 C 220.001 245.558 221.144 249.000 223.535 249.000 C 224.341 249.000 225.000 249.383 225.000 249.852 C 225.000 250.320 227.897 251.487 231.438 252.446 C 234.978 253.404 238.691 254.807 239.688 255.562 C 240.684 256.318 242.255 256.951 243.179 256.968 C 244.102 256.986 245.575 257.718 246.452 258.595 C 248.159 260.302 258.354 264.381 257.513 263.021 C 257.237 262.575 257.688 261.950 258.515 261.633 C 259.342 261.315 259.929 260.706 259.819 260.278 C 259.474 258.937 261.184 252.559 262.238 251.250 C 262.792 250.563 262.852 249.993 262.372 249.985 C 261.893 249.976 262.119 249.577 262.875 249.098 C 263.631 248.619 264.250 247.051 264.250 245.614 C 264.250 244.176 264.670 243.000 265.184 243.000 C 265.698 243.000 265.864 242.588 265.553 242.085 C 265.242 241.582 265.452 241.016 266.020 240.827 C 266.588 240.637 267.204 238.793 267.389 236.729 C 267.574 234.665 268.125 233.046 268.613 233.131 C 269.880 233.354 281.000 212.660 281.000 210.078 C 281.000 209.603 281.675 208.955 282.500 208.638 C 283.325 208.322 284.000 207.254 284.000 206.267 C 284.000 205.279 284.898 202.795 285.996 200.747 C 288.212 196.613 293.342 178.631 293.199 175.500 C 293.003 171.211 291.862 167.000 290.896 167.000 C 290.338 167.000 290.136 167.412 290.447 167.915 C 290.758 168.418 290.503 168.999 289.881 169.206 C 289.259 169.414 288.750 170.802 288.750 172.292 C 288.750 173.781 288.281 175.000 287.708 175.000 C 287.135 175.000 286.964 175.297 287.327 175.660 C 287.690 176.023 287.021 177.036 285.840 177.910 C 284.659 178.785 284.212 179.388 284.847 179.250 C 285.481 179.112 286.000 179.450 286.000 180.000 C 286.000 180.550 285.351 181.000 284.557 181.000 C 283.763 181.000 282.525 181.790 281.807 182.755 C 281.088 183.720 278.813 185.397 276.750 186.482 C 274.688 187.567 273.000 188.829 273.000 189.286 C 273.000 189.744 272.550 189.840 272.000 189.500 C 271.450 189.160 271.000 189.344 271.000 189.910 C 271.000 190.475 270.325 190.678 269.500 190.362 C 268.675 190.045 268.000 190.235 268.000 190.783 C 268.000 192.102 255.400 191.597 251.500 190.121 C 249.850 189.497 247.326 188.326 245.890 187.520 C 244.455 186.713 243.028 186.305 242.720 186.613 C 242.412 186.921 241.400 186.013 240.471 184.595 C 239.541 183.177 238.311 182.308 237.736 182.663 C 237.125 183.041 236.989 182.826 237.409 182.147 C 237.810 181.498 237.440 180.722 236.569 180.388 C 235.712 180.059 235.231 179.435 235.500 179.000 C 235.769 178.565 235.252 177.927 234.351 177.581 C 233.451 177.236 232.984 176.683 233.314 176.353 C 233.644 176.022 233.002 173.964 231.887 171.779 C 230.773 169.594 230.113 167.554 230.422 167.245 C 230.730 166.937 230.485 166.084 229.876 165.351 C 229.187 164.521 229.025 162.321 229.445 159.518 C 230.226 154.309 230.039 153.390 228.280 153.794 C 227.576 153.955 227.000 153.652 227.000 153.120 C 227.000 152.588 225.178 152.021 222.951 151.861 C 220.724 151.700 219.224 151.890 219.617 152.284 C 220.011 152.678 219.133 153.000 217.667 153.000 C 215.460 153.000 214.974 153.475 214.852 155.750 C 214.771 157.263 214.658 159.247 214.602 160.160 C 214.546 161.072 214.194 162.129 213.819 162.507 C 213.444 162.886 213.380 163.827 213.676 164.598 C 213.972 165.369 213.730 166.000 213.138 166.000 C 212.547 166.000 212.309 166.640 212.609 167.423 C 212.922 168.238 212.267 169.322 211.078 169.958 C 209.935 170.570 209.000 171.730 209.000 172.535 C 209.000 173.341 208.523 174.000 207.941 174.000 C 207.359 174.000 207.203 174.520 207.595 175.155 C 208.039 175.872 207.870 176.037 207.147 175.591 C 206.501 175.192 205.726 175.550 205.401 176.399 C 205.079 177.237 203.950 178.198 202.893 178.534 C 201.836 178.869 201.230 179.562 201.546 180.074 C 202.225 181.173 197.248 183.271 195.916 182.448 C 195.412 182.137 195.000 182.385 195.000 183.000 C 195.000 183.615 194.530 183.828 193.956 183.473 C 193.382 183.118 192.359 183.287 191.682 183.849 C 189.324 185.806 177.882 184.505 172.250 181.638 C 169.363 180.169 167.000 179.160 167.000 179.398 C 167.000 179.635 165.441 178.449 163.535 176.762 C 161.630 175.075 160.306 173.313 160.594 172.847 C 160.882 172.381 160.641 172.000 160.059 172.000 C 159.477 172.000 159.000 171.357 159.000 170.571 C 159.000 169.786 158.438 168.548 157.750 167.821 C 157.063 167.095 156.343 165.600 156.150 164.500 C 155.958 163.400 155.330 162.208 154.754 161.851 C 154.179 161.494 154.014 160.405 154.388 159.431 C 154.762 158.457 154.627 157.387 154.088 157.054 C 153.549 156.721 152.995 154.548 152.858 152.224 C 152.721 149.901 152.134 147.997 151.554 147.994 C 150.975 147.990 149.150 147.275 147.500 146.404 C 145.850 145.533 143.600 144.641 142.500 144.422 C 141.400 144.203 139.981 143.316 139.346 142.452 C 137.670 140.170 136.400 142.552 135.854 149.000 C 135.784 149.825 135.284 151.063 134.741 151.750 C 134.061 152.612 134.151 153.000 135.033 153.000 C 135.892 153.000 135.717 153.655 134.500 155.000 C 133.505 156.100 133.097 157.029 133.595 157.063 C 134.093 157.098 133.386 157.571 132.024 158.115 C 130.057 158.900 129.286 158.745 128.274 157.360 C 127.573 156.402 127.000 155.984 127.000 156.431 C 127.000 156.879 126.330 156.689 125.511 156.009 C 124.692 155.329 124.269 154.374 124.570 153.887 C 124.871 153.399 124.615 153.000 124.000 153.000 C 123.385 153.000 123.160 152.550 123.500 152.000 C 123.840 151.450 123.738 151.000 123.273 151.000 C 122.269 151.000 122.145 150.073 121.661 139.000 C 121.281 130.327 120.420 126.622 118.988 127.507 C 118.547 127.780 118.448 126.990 118.767 125.751 C 119.304 123.668 119.208 123.612 117.481 125.000 C 116.402 125.868 115.933 125.973 116.367 125.250 C 117.220 123.831 116.131 123.630 114.206 124.852 "/></g>
<g fill="#687885FD" stroke="#687885FD">
<path d="M 214.539 262.194 C 213.662 264.386 211.604 272.926 209.966 281.172 C 205.031 306.010 202.991 311.862 194.335 326.000 C 186.682 338.501 173.967 369.000 176.409 369.000 C 178.694 369.000 180.601 366.490 182.487 361.000 C 183.526 357.975 185.615 352.350 187.130 348.500 L 189.883 341.500 189.963 347.000 C 190.059 353.498 192.779 360.105 197.307 364.838 C 207.329 375.313 224.420 375.490 234.832 365.225 C 237.274 362.817 238.937 361.669 238.527 362.674 C 238.117 363.678 234.958 372.375 231.508 382.000 C 226.134 396.989 225.475 399.542 226.916 399.793 C 228.189 400.015 229.162 398.429 230.905 393.293 C 232.173 389.557 233.839 385.082 234.605 383.349 C 235.372 381.616 236.000 379.903 236.000 379.543 C 236.000 376.585 247.734 352.929 255.304 340.627 C 259.479 333.843 262.770 324.237 266.471 308.041 C 267.911 301.739 270.149 293.958 271.445 290.749 L 273.801 284.916 271.651 283.565 C 249.064 269.373 229.356 259.836 220.317 258.723 C 216.214 258.218 216.103 258.284 214.539 262.194 M 228.093 267.862 C 235.664 270.468 248.924 277.229 259.296 283.771 C 266.004 288.001 267.929 289.696 267.404 290.909 C 265.508 295.294 262.761 304.244 261.390 310.500 C 258.355 324.356 255.245 333.002 250.959 339.500 C 249.508 341.700 246.798 346.383 244.938 349.906 L 241.555 356.312 241.861 348.239 C 242.235 338.365 240.310 333.292 234.050 327.653 C 228.293 322.467 224.348 321.000 216.154 321.000 C 208.892 321.000 204.317 322.389 199.755 325.978 C 197.349 327.871 197.096 327.913 197.707 326.319 C 198.090 325.318 199.418 323.004 200.658 321.175 C 204.426 315.618 208.871 302.717 211.124 290.797 C 212.299 284.584 214.120 276.463 215.172 272.750 C 216.949 266.478 217.283 266.000 219.886 266.000 C 221.426 266.000 225.120 266.838 228.093 267.862 M 226.797 326.689 C 234.544 330.346 238.651 337.965 239.096 349.500 C 239.447 358.603 235.905 363.500 225.708 368.011 C 222.053 369.628 220.415 369.800 215.817 369.052 C 202.150 366.827 195.137 359.957 193.049 346.744 C 191.304 335.707 195.808 328.472 206.617 324.948 C 213.710 322.636 219.217 323.111 226.797 326.689 "/></g>
<g fill="#F1C1A1FD" stroke="#F1C1A1FD">
<path d="M 244.373 72.206 C 244.132 72.595 243.220 72.638 242.344 72.302 C 241.381 71.932 240.360 72.392 239.759 73.465 C 238.952 74.907 238.604 74.983 237.898 73.870 C 237.213 72.789 237.027 72.776 237.015 73.809 C 237.007 74.529 236.615 74.880 236.144 74.589 C 235.674 74.298 235.488 75.101 235.731 76.372 C 235.974 77.644 235.545 79.318 234.777 80.092 C 234.009 80.866 232.633 83.007 231.718 84.849 C 230.249 87.807 230.227 88.370 231.537 89.679 C 232.352 90.494 232.720 91.644 232.355 92.235 C 231.977 92.846 232.157 93.021 232.773 92.640 C 233.380 92.265 234.169 92.958 234.568 94.215 C 234.960 95.450 236.602 97.694 238.216 99.202 C 239.831 100.711 240.896 102.360 240.582 102.868 C 240.268 103.375 240.676 104.046 241.489 104.357 C 242.328 104.679 242.711 105.589 242.376 106.462 C 242.045 107.326 242.318 108.000 243.000 108.000 C 243.686 108.000 243.955 108.675 243.618 109.552 C 243.291 110.406 243.448 110.841 243.968 110.520 C 245.146 109.792 244.156 118.807 242.439 124.441 C 241.759 126.673 240.707 128.388 240.101 128.250 C 239.496 128.113 239.000 128.611 239.000 129.358 C 239.000 130.569 229.583 137.580 227.071 138.240 C 225.986 138.525 229.286 134.341 234.150 129.266 C 235.938 127.400 237.250 124.967 237.250 123.516 C 237.250 122.132 237.574 121.000 237.971 121.000 C 239.038 121.000 238.383 115.015 236.877 111.000 C 236.155 109.075 235.681 107.107 235.823 106.627 C 235.965 106.147 235.325 106.045 234.399 106.400 C 232.989 106.942 232.921 106.800 233.981 105.523 C 235.025 104.265 234.962 104.000 233.622 104.000 C 232.730 104.000 232.000 103.325 232.000 102.500 C 232.000 101.675 231.523 101.000 230.941 101.000 C 230.359 101.000 230.162 100.547 230.504 99.993 C 230.847 99.439 230.423 98.716 229.563 98.386 C 228.704 98.056 227.964 97.047 227.921 96.143 C 227.871 95.096 227.658 94.956 227.336 95.756 C 227.057 96.447 226.408 96.752 225.893 96.434 C 225.378 96.116 224.941 97.126 224.921 98.678 C 224.763 111.001 224.049 114.000 221.274 114.000 C 220.390 114.000 219.964 114.297 220.327 114.660 C 220.690 115.023 220.061 115.969 218.929 116.762 C 217.797 117.555 216.616 117.949 216.304 117.637 C 215.992 117.325 214.951 117.491 213.991 118.005 C 211.584 119.293 210.910 123.850 212.547 127.768 C 213.299 129.566 213.953 131.244 214.003 131.498 C 214.052 131.752 215.226 134.523 216.612 137.657 C 219.595 144.403 217.321 143.365 213.838 136.390 C 212.632 133.976 211.249 132.000 210.764 132.000 C 210.279 132.000 210.191 131.500 210.569 130.888 C 210.947 130.277 210.640 129.396 209.887 128.930 C 209.134 128.465 208.470 127.502 208.411 126.792 C 207.999 121.786 208.067 121.894 206.000 123.000 C 204.841 123.620 204.000 123.675 204.000 123.129 C 204.000 122.611 203.100 122.423 202.000 122.710 C 200.900 122.998 200.000 123.657 200.000 124.176 C 200.000 124.694 199.550 124.840 199.000 124.500 C 198.450 124.160 198.000 124.361 198.000 124.948 C 198.000 126.048 202.384 130.265 203.387 130.128 C 203.698 130.086 205.154 131.165 206.622 132.526 C 208.091 133.887 208.969 135.000 208.575 135.000 C 208.180 135.000 208.564 135.707 209.429 136.571 C 210.293 137.436 211.038 137.773 211.083 137.321 C 211.129 136.870 211.286 137.602 211.431 138.949 C 211.576 140.296 212.214 141.571 212.848 141.783 C 213.481 141.994 214.000 142.756 214.000 143.476 C 214.000 145.014 216.743 146.277 218.170 145.395 C 219.754 144.416 227.000 144.298 227.000 145.251 C 227.000 145.728 227.441 145.846 227.979 145.513 C 228.518 145.180 229.821 145.369 230.874 145.933 C 232.306 146.699 233.100 146.584 234.017 145.479 C 234.693 144.666 234.939 144.000 234.566 144.000 C 234.192 144.000 234.587 143.000 235.443 141.777 C 236.299 140.555 237.000 139.980 237.000 140.500 C 237.000 141.020 237.701 140.445 238.557 139.223 C 239.413 138.000 240.763 137.000 241.557 137.000 C 242.351 137.000 243.000 136.550 243.000 136.000 C 243.000 135.450 243.675 135.000 244.500 135.000 C 245.325 135.000 246.000 134.325 246.000 133.500 C 246.000 132.675 246.477 132.000 247.059 132.000 C 247.641 132.000 247.797 132.520 247.405 133.155 C 246.916 133.945 247.134 134.033 248.095 133.433 C 248.868 132.952 250.400 132.428 251.500 132.270 C 252.600 132.112 254.764 131.471 256.309 130.846 C 258.471 129.970 260.426 130.026 264.809 131.089 C 267.939 131.848 270.838 132.363 271.250 132.234 C 271.663 132.106 272.000 132.477 272.000 133.059 C 272.000 133.641 272.414 133.862 272.919 133.550 C 273.425 133.237 274.502 133.645 275.312 134.455 C 276.123 135.266 277.386 136.057 278.119 136.214 C 279.860 136.587 282.046 138.620 281.401 139.266 C 281.124 139.543 282.547 141.130 284.565 142.793 C 286.916 144.730 287.955 146.263 287.461 147.062 C 286.964 147.868 287.100 148.056 287.845 147.595 C 288.480 147.203 289.007 145.221 289.015 143.191 C 289.024 141.144 289.367 140.029 289.785 140.686 C 290.200 141.339 290.377 138.414 290.179 134.186 C 289.980 129.959 289.591 119.975 289.313 112.000 C 288.656 93.117 288.646 93.000 287.643 93.000 C 287.172 93.000 287.054 92.302 287.382 91.448 C 287.765 90.449 287.573 90.146 286.843 90.597 C 286.050 91.087 285.909 90.500 286.373 88.649 C 286.767 87.082 286.622 86.000 286.019 86.000 C 285.459 86.000 285.000 84.815 285.000 83.367 C 285.000 80.664 282.214 77.520 278.881 76.462 C 277.847 76.134 277.000 75.466 277.000 74.978 C 277.000 73.975 270.417 72.472 267.750 72.867 C 266.788 73.009 266.000 72.759 266.000 72.311 C 266.000 71.316 244.986 71.214 244.373 72.206 "/></g>
<g fill="#F1C1A1FD" stroke="#F1C1A1FD">
<path d="M 210.884 75.855 C 210.123 76.100 209.196 76.767 208.825 77.337 C 208.454 77.908 206.879 78.516 205.325 78.689 C 197.992 79.503 195.240 79.893 192.000 80.579 C 190.075 80.987 187.150 81.387 185.500 81.469 C 183.850 81.551 181.711 81.977 180.748 82.416 C 179.784 82.856 177.872 82.934 176.498 82.589 C 175.058 82.227 174.000 82.394 174.000 82.981 C 174.000 83.541 172.970 84.000 171.711 84.000 C 170.453 84.000 167.772 84.842 165.755 85.870 C 163.737 86.899 162.086 87.461 162.085 87.120 C 162.084 86.779 161.787 87.288 161.425 88.250 C 161.063 89.213 160.343 90.000 159.824 90.000 C 159.306 90.000 159.160 90.450 159.500 91.000 C 159.840 91.550 159.656 92.000 159.090 92.000 C 158.525 92.000 158.322 92.675 158.638 93.500 C 158.955 94.325 158.778 95.000 158.246 95.000 C 157.713 95.000 157.491 96.117 157.752 97.483 C 158.013 98.849 157.922 100.762 157.549 101.733 C 157.176 102.705 156.907 103.620 156.951 103.767 C 156.994 103.914 155.472 105.403 153.567 107.076 C 151.661 108.748 150.389 110.078 150.739 110.031 C 151.088 109.984 151.471 110.601 151.589 111.403 C 151.718 112.281 151.248 112.649 150.410 112.327 C 149.644 112.033 148.740 112.514 148.401 113.396 C 148.063 114.278 147.133 115.000 146.334 115.000 C 145.535 115.000 145.127 115.397 145.427 115.882 C 145.727 116.368 145.138 117.830 144.117 119.132 C 143.096 120.435 141.941 122.963 141.551 124.750 C 141.160 126.538 140.496 128.000 140.075 128.000 C 139.653 128.000 139.403 129.561 139.519 131.469 C 139.635 133.376 140.015 134.651 140.365 134.302 C 140.714 133.953 141.000 134.192 141.000 134.833 C 141.000 135.475 141.900 136.000 143.000 136.000 C 144.111 136.000 145.000 136.667 145.000 137.500 C 145.000 138.863 146.096 139.396 147.570 138.750 C 147.884 138.613 148.566 139.260 149.086 140.190 C 150.776 143.209 157.830 140.624 160.140 136.140 C 161.849 132.823 163.547 131.000 164.929 131.000 C 165.518 131.000 166.000 130.550 166.000 130.000 C 166.000 129.450 166.675 129.000 167.500 129.000 C 168.325 129.000 169.000 128.550 169.000 128.000 C 169.000 127.450 169.638 127.000 170.417 127.000 C 171.196 127.000 171.999 126.502 172.202 125.894 C 172.405 125.285 173.905 124.715 175.535 124.625 C 177.166 124.536 179.058 124.110 179.740 123.678 C 180.423 123.247 183.798 122.966 187.240 123.055 C 196.261 123.286 203.000 121.537 203.000 118.965 C 203.000 118.434 203.338 118.053 203.750 118.118 C 204.163 118.184 204.332 118.184 204.128 118.118 C 203.923 118.053 204.315 117.325 205.000 116.500 C 205.950 115.356 205.960 115.000 205.043 115.000 C 204.258 115.000 204.042 114.045 204.419 112.250 C 204.736 110.738 205.068 107.138 205.157 104.250 C 205.245 101.363 205.771 99.000 206.325 99.000 C 206.880 99.000 207.082 98.749 206.776 98.442 C 206.469 98.136 207.519 96.460 209.109 94.719 C 210.699 92.979 212.029 91.992 212.063 92.527 C 212.098 93.062 212.534 92.488 213.031 91.250 C 213.529 90.013 214.569 89.000 215.343 89.000 C 216.117 89.000 217.026 87.620 217.363 85.934 C 217.701 84.247 218.427 83.146 218.977 83.486 C 219.557 83.844 219.727 83.452 219.382 82.552 C 219.054 81.698 219.237 81.000 219.787 81.000 C 221.419 81.000 220.654 76.015 219.000 75.872 C 214.272 75.463 212.118 75.459 210.884 75.855 "/></g>
<g fill="#F1C1A1FD" stroke="#F1C1A1FD">
<path d="M 174.009 369.741 C 172.089 369.973 170.245 370.604 169.912 371.142 C 169.197 372.300 151.769 377.102 151.016 376.350 C 150.732 376.066 150.500 376.433 150.500 377.167 C 150.500 377.900 149.938 378.556 149.250 378.625 C 148.563 378.694 147.298 378.806 146.441 378.875 C 145.584 378.944 145.160 379.450 145.500 380.000 C 145.849 380.565 145.026 381.000 143.606 381.000 C 140.677 381.000 136.000 382.943 136.000 384.161 C 136.000 384.622 135.132 385.000 134.071 385.000 C 133.011 385.000 131.508 385.634 130.733 386.410 C 129.958 387.185 128.238 387.973 126.912 388.160 C 124.322 388.525 122.000 390.256 122.000 391.822 C 122.000 392.352 121.296 393.056 120.437 393.386 C 119.577 393.716 119.124 394.392 119.431 394.888 C 119.738 395.384 119.204 396.136 118.244 396.559 C 116.867 397.166 116.815 397.364 118.000 397.500 C 119.185 397.636 119.133 397.834 117.756 398.441 C 116.796 398.864 116.260 399.612 116.565 400.105 C 117.152 401.056 217.000 401.399 217.000 400.450 C 217.000 398.294 213.269 393.593 209.499 390.999 C 207.024 389.297 204.994 387.588 204.988 387.202 C 204.981 386.816 203.293 384.682 201.238 382.460 C 199.182 380.238 196.280 376.962 194.789 375.180 C 190.493 370.044 184.498 368.476 174.009 369.741 "/></g>
<g fill="#7D5D44FD" stroke="#7D5D44FD">
<path d="M 137.695 229.000 C 138.506 243.586 141.923 252.698 150.645 263.528 C 155.415 269.451 160.000 274.388 160.000 273.600 C 160.000 273.380 161.564 274.764 163.475 276.675 C 165.523 278.723 167.434 279.850 168.129 279.420 C 168.839 278.982 169.044 279.120 168.644 279.768 C 167.991 280.823 181.540 290.000 183.751 290.000 C 184.346 290.000 184.983 290.394 185.167 290.875 C 185.350 291.356 188.357 293.185 191.849 294.939 C 195.340 296.693 197.901 297.650 197.540 297.064 C 197.178 296.479 197.326 296.000 197.869 296.000 C 198.908 296.000 202.544 287.134 203.147 283.130 C 203.468 280.993 202.739 280.535 194.969 277.995 C 170.609 270.032 146.776 247.263 138.483 224.029 C 137.338 220.822 137.266 221.276 137.695 229.000 "/></g>
<g fill="#08050CFD" stroke="#08050CFD">
<path d="M 252.164 288.302 C 251.570 289.018 251.334 290.562 251.640 291.733 C 252.308 294.286 259.277 297.364 262.252 296.420 C 264.010 295.862 264.205 296.100 263.660 298.136 C 263.312 299.436 263.021 300.938 263.014 301.473 C 263.006 302.007 262.309 301.458 261.464 300.252 C 259.758 297.817 253.024 295.393 250.575 296.333 C 248.060 297.298 248.654 301.727 251.554 303.628 C 254.548 305.589 259.944 305.693 261.137 303.813 C 261.796 302.773 261.987 302.812 262.055 304.000 C 262.102 304.825 262.789 303.731 263.581 301.570 C 264.372 299.408 264.742 296.764 264.403 295.694 C 264.044 294.564 264.188 293.998 264.747 294.343 C 266.022 295.131 268.234 290.179 267.279 288.675 C 266.754 287.849 266.498 287.946 266.418 289.000 C 266.084 293.412 265.976 293.526 264.228 291.301 C 261.244 287.504 254.266 285.770 252.164 288.302 M 257.050 299.526 C 260.762 301.445 260.839 303.000 257.223 303.000 C 254.059 303.000 249.677 300.331 250.542 298.932 C 251.380 297.577 253.688 297.787 257.050 299.526 "/></g>
<g fill="#F1C1A1FD" stroke="#F1C1A1FD">
<path d="M 219.616 93.920 C 218.580 95.038 217.374 95.731 216.935 95.460 C 216.497 95.189 215.813 95.494 215.415 96.138 C 214.926 96.929 215.147 97.049 216.095 96.507 C 216.868 96.067 216.506 96.672 215.292 97.853 C 214.077 99.034 212.711 100.000 212.256 100.000 C 211.801 100.000 211.366 100.788 211.290 101.750 C 211.214 102.713 210.563 105.455 209.844 107.844 C 208.639 111.848 208.691 112.301 210.507 113.629 C 211.724 114.519 212.609 114.674 212.822 114.035 C 213.011 113.466 213.981 113.000 214.976 113.000 C 215.972 113.000 217.133 112.213 217.557 111.250 C 218.013 110.214 218.413 110.010 218.539 110.750 C 218.655 111.438 218.860 111.663 218.993 111.250 C 219.127 110.838 219.168 110.115 219.083 109.645 C 218.999 109.174 219.473 108.135 220.136 107.336 C 220.800 106.536 221.471 104.671 221.628 103.191 C 221.785 101.711 222.166 99.488 222.475 98.250 C 222.785 97.013 222.585 96.000 222.031 96.000 C 221.477 96.000 221.131 95.074 221.262 93.943 L 221.500 91.886 219.616 93.920 "/></g>
<g fill="#08050CFD" stroke="#08050CFD">
<path d="M 234.000 333.624 C 234.000 334.212 234.769 336.224 235.709 338.096 C 237.890 342.439 238.623 353.081 237.010 356.977 C 236.336 358.603 234.927 360.206 233.878 360.539 C 232.829 360.872 232.205 361.523 232.492 361.987 C 233.147 363.048 227.706 366.372 222.683 367.978 C 220.584 368.650 219.091 369.424 219.366 369.699 C 220.218 370.551 226.465 368.091 231.404 364.959 C 238.806 360.265 240.993 351.857 237.767 340.500 C 236.613 336.440 234.000 331.669 234.000 333.624 "/></g>
<g fill="#B1E9E8FD" stroke="#B1E9E8FD">
<path d="M 248.079 300.250 C 248.034 301.818 248.537 303.007 249.250 303.015 C 250.170 303.027 250.142 303.258 249.143 303.890 C 248.182 304.499 248.114 304.952 248.910 305.444 C 249.527 305.826 249.774 306.557 249.457 307.069 C 249.141 307.581 249.696 308.069 250.691 308.152 C 253.123 308.357 254.554 308.712 254.250 309.035 C 253.973 309.329 255.315 309.380 257.287 309.150 C 257.995 309.068 258.642 308.098 258.725 306.997 C 258.852 305.308 258.415 305.075 255.938 305.511 C 254.322 305.796 253.000 305.586 253.000 305.046 C 253.000 304.505 252.307 304.329 251.459 304.654 C 250.612 304.979 250.008 304.853 250.118 304.373 C 250.228 303.893 250.057 302.825 249.738 302.000 C 249.419 301.175 248.933 299.825 248.658 299.000 C 248.383 298.175 248.122 298.738 248.079 300.250 "/></g>
<g fill="#08050CFD" stroke="#08050CFD">
<path d="M 206.479 325.022 C 199.297 327.300 194.287 331.937 193.507 337.027 L 192.974 340.500 194.237 337.500 C 197.552 329.626 199.795 327.938 211.000 324.889 C 214.575 323.916 216.375 323.119 215.000 323.116 C 213.625 323.114 209.791 323.972 206.479 325.022 "/></g>
<g fill="#08050CFD" stroke="#08050CFD">
<path d="M 234.451 365.540 C 232.027 367.959 228.416 370.241 225.451 371.228 C 222.728 372.135 221.233 372.904 222.128 372.938 C 224.474 373.027 230.038 370.545 233.371 367.923 L 236.241 365.665 235.471 368.083 C 233.819 373.265 234.608 373.201 236.485 368.000 C 237.577 364.975 238.477 362.275 238.485 362.000 C 238.493 361.725 236.678 363.318 234.451 365.540 "/></g>
<g fill="#08050CFD" stroke="#08050CFD">
<path d="M 242.018 346.750 C 241.843 350.738 241.655 354.519 241.600 355.154 C 241.545 355.788 243.351 352.901 245.614 348.737 C 247.876 344.574 249.226 341.361 248.614 341.597 C 248.001 341.834 246.600 344.159 245.500 346.764 L 243.500 351.500 242.918 345.500 L 242.336 339.500 242.018 346.750 "/></g>
<g fill="#08050CFD" stroke="#08050CFD">
<path d="M 216.133 269.048 C 214.668 273.251 215.335 274.020 216.987 270.032 C 217.687 268.340 218.993 267.000 219.940 267.000 C 222.364 267.000 232.272 270.018 233.716 271.197 C 234.385 271.742 235.510 271.996 236.216 271.761 C 237.997 271.166 226.413 266.876 221.388 266.268 C 217.473 265.795 217.221 265.929 216.133 269.048 "/></g>
<g fill="#08050CFD" stroke="#08050CFD">
<path d="M 190.022 353.685 C 189.898 360.382 203.370 373.203 210.210 372.898 C 212.073 372.814 211.941 372.659 209.500 372.065 C 202.065 370.255 195.508 364.585 192.079 357.000 C 190.960 354.525 190.034 353.033 190.022 353.685 "/></g>
<g fill="#08050CFD" stroke="#08050CFD">
<path d="M 231.474 379.185 C 230.523 382.108 228.953 386.300 227.986 388.500 C 227.018 390.700 225.949 394.075 225.609 396.000 C 225.270 397.925 227.030 393.924 229.521 387.108 C 232.011 380.292 233.859 374.526 233.627 374.293 C 233.394 374.061 232.425 376.262 231.474 379.185 "/></g>
<g fill="#B1E9E8FD" stroke="#B1E9E8FD">
<path d="M 250.675 298.658 C 249.554 299.780 252.056 301.916 253.737 301.271 C 254.792 300.866 255.085 301.054 254.605 301.830 C 254.113 302.626 254.860 303.000 256.941 303.000 C 260.030 303.000 260.971 301.718 258.845 300.405 C 258.089 299.937 257.964 300.133 258.485 300.975 C 258.987 301.789 258.833 302.111 258.064 301.855 C 257.396 301.632 256.922 301.062 257.010 300.587 C 257.361 298.699 252.204 297.129 250.675 298.658 "/></g>
<g fill="#B1E9E8FD" stroke="#B1E9E8FD">
<path d="M 192.000 1.892 C 192.000 2.382 190.822 3.079 189.382 3.440 C 187.942 3.802 187.013 4.346 187.317 4.651 C 187.621 4.955 190.037 4.505 192.685 3.651 C 195.333 2.796 198.850 1.918 200.500 1.699 C 202.150 1.479 200.913 1.232 197.750 1.150 C 194.588 1.067 192.000 1.401 192.000 1.892 "/></g>
<g fill="#08050CFD" stroke="#08050CFD">
<path d="M 201.900 363.394 C 204.361 366.013 211.876 369.072 215.428 368.900 C 216.568 368.844 215.760 368.390 213.633 367.891 C 208.921 366.784 203.000 364.057 203.000 362.993 C 203.000 362.565 202.223 361.916 201.274 361.551 C 199.999 361.062 200.163 361.545 201.900 363.394 "/></g>
<g fill="#08050CFD" stroke="#08050CFD">
<path d="M 186.444 350.153 C 182.389 361.306 182.729 362.487 186.900 351.733 C 188.769 346.911 190.094 342.761 189.844 342.511 C 189.594 342.260 188.064 345.699 186.444 350.153 "/></g>
<g fill="#08050CFD" stroke="#08050CFD">
<path d="M 206.009 309.822 C 203.998 315.262 203.815 316.496 205.020 316.476 C 205.891 316.462 206.415 315.639 206.293 314.476 C 206.179 313.389 206.806 310.577 207.687 308.228 C 208.568 305.878 209.106 303.773 208.883 303.550 C 208.660 303.327 207.367 306.149 206.009 309.822 "/></g>
<g fill="#08050CFD" stroke="#08050CFD">
<path d="M 244.270 275.537 C 244.693 275.997 248.293 278.247 252.270 280.536 C 256.246 282.826 258.609 283.874 257.520 282.866 C 255.506 281.002 242.861 274.008 244.270 275.537 "/></g>
<g fill="#08050CFD" stroke="#08050CFD">
<path d="M 233.814 385.000 C 232.203 389.037 229.004 398.810 229.034 399.603 C 229.113 401.706 232.896 392.156 233.620 388.025 C 234.056 385.536 234.143 384.175 233.814 385.000 "/></g>
<g fill="#08050CFD" stroke="#08050CFD">
<path d="M 246.000 308.438 C 246.000 309.229 246.788 309.827 247.750 309.766 C 248.713 309.706 250.513 309.990 251.750 310.396 C 255.279 311.555 254.412 309.339 250.851 308.098 C 246.728 306.661 246.000 306.712 246.000 308.438 "/></g>
<g fill="#687885FD" stroke="#687885FD">
<path d="M 382.658 285.925 C 387.695 286.241 391.605 286.163 391.349 285.750 C 391.092 285.338 386.971 285.079 382.191 285.175 L 373.500 285.351 382.658 285.925 "/></g>
<g fill="#08050CFD" stroke="#08050CFD">
<path d="M 232.879 326.548 C 235.288 328.654 238.099 331.755 239.126 333.439 C 240.152 335.122 240.994 336.026 240.996 335.447 C 241.003 333.419 235.141 326.482 231.836 324.609 C 228.863 322.924 228.977 323.135 232.879 326.548 "/></g>
<g fill="#B1E9E8FD" stroke="#B1E9E8FD">
<path d="M 253.570 289.887 C 253.269 290.374 253.778 291.387 254.703 292.137 C 255.859 293.074 256.149 293.110 255.633 292.250 C 255.220 291.563 255.336 291.000 255.891 291.000 C 256.446 291.000 257.359 291.788 257.920 292.750 C 258.481 293.713 258.953 294.107 258.970 293.628 C 258.986 293.148 259.685 293.324 260.523 294.019 C 261.786 295.068 261.945 295.020 261.454 293.740 C 261.128 292.891 259.948 291.958 258.830 291.666 C 257.713 291.374 257.096 290.654 257.458 290.067 C 257.842 289.447 257.281 289.000 256.118 289.000 C 255.018 289.000 253.871 289.399 253.570 289.887 "/></g>
<g fill="#08050CFD" stroke="#08050CFD">
<path d="M 232.944 262.192 C 239.854 264.899 240.319 264.995 235.506 262.722 C 232.271 261.194 228.471 259.705 227.062 259.414 C 225.653 259.123 228.300 260.373 232.944 262.192 "/></g>
<g fill="#08050CFD" stroke="#08050CFD">
<path d="M 183.000 291.055 C 185.990 293.098 194.209 297.125 194.597 296.737 C 194.815 296.518 192.745 295.286 189.997 293.999 C 187.249 292.711 185.000 291.285 185.000 290.829 C 185.000 290.373 184.213 290.007 183.250 290.015 C 181.745 290.028 181.710 290.174 183.000 291.055 "/></g>
<g fill="#08050CFD" stroke="#08050CFD">
<path d="M 251.563 346.742 C 249.582 349.909 248.307 352.301 248.730 352.057 C 249.154 351.814 250.935 349.339 252.689 346.557 C 254.442 343.776 256.242 341.709 256.689 341.964 C 257.135 342.218 256.974 342.102 256.332 341.705 C 255.594 341.249 253.840 343.101 251.563 346.742 "/></g>
<g fill="#08050CFD" stroke="#08050CFD">
<path d="M 255.382 310.191 C 254.977 310.846 255.178 311.559 255.829 311.776 C 256.480 311.993 256.698 312.695 256.314 313.335 C 255.930 313.976 256.377 313.882 257.308 313.128 C 258.239 312.373 259.000 311.135 259.000 310.378 C 259.000 308.688 256.394 308.554 255.382 310.191 "/></g>
<g fill="#08050CFD" stroke="#08050CFD">
<path d="M 204.179 303.056 C 201.885 310.264 201.838 310.559 203.420 307.842 C 204.271 306.380 205.087 303.771 205.234 302.044 C 205.468 299.279 205.342 299.400 204.179 303.056 "/></g>
<g fill="#08050CFD" stroke="#08050CFD">
<path d="M 247.500 269.534 C 249.700 270.893 252.175 272.116 253.000 272.252 C 253.825 272.389 252.435 271.263 249.912 269.750 C 247.389 268.238 244.914 267.014 244.412 267.031 C 243.910 267.048 245.300 268.174 247.500 269.534 "/></g>
<g fill="#08050CFD" stroke="#08050CFD">
<path d="M 194.557 353.000 C 195.219 355.507 198.952 362.100 198.983 360.817 C 198.992 360.442 197.852 357.967 196.449 355.317 C 195.046 352.668 194.195 351.625 194.557 353.000 "/></g>
<g fill="#08050CFD" stroke="#08050CFD">
<path d="M 193.066 325.893 C 192.036 327.347 191.038 329.421 190.847 330.504 C 190.656 331.586 191.513 330.565 192.750 328.236 C 195.470 323.115 195.573 322.353 193.066 325.893 "/></g>
<g fill="#08050CFD" stroke="#08050CFD">
<path d="M 261.888 325.721 C 259.905 332.549 260.200 333.453 262.367 327.185 C 263.377 324.262 263.995 321.662 263.740 321.407 C 263.485 321.151 262.651 323.093 261.888 325.721 "/></g>
<g fill="#08050CFD" stroke="#08050CFD">
<path d="M 198.919 316.591 L 196.500 322.178 199.317 316.990 C 200.867 314.136 201.955 311.622 201.736 311.402 C 201.516 311.183 200.249 313.518 198.919 316.591 "/></g>
<g fill="#08050CFD" stroke="#08050CFD">
<path d="M 185.238 341.464 C 183.994 344.129 183.136 346.469 183.331 346.665 C 183.732 347.065 186.802 340.280 187.225 338.060 C 187.376 337.268 186.482 338.800 185.238 341.464 "/></g>
<g fill="#08050CFD" stroke="#08050CFD">
<path d="M 228.448 328.529 C 230.497 329.920 232.666 331.158 233.266 331.279 C 233.867 331.401 232.598 330.263 230.447 328.750 C 228.296 327.238 226.127 326.000 225.628 326.000 C 225.129 326.000 226.398 327.138 228.448 328.529 "/></g>
<g fill="#B1E9E8FD" stroke="#B1E9E8FD">
<path d="M 124.612 219.876 C 123.144 221.498 123.116 221.831 124.406 222.326 C 125.418 222.714 125.719 222.432 125.342 221.449 C 125.036 220.652 125.284 220.000 125.893 220.000 C 126.502 220.000 127.057 220.563 127.128 221.250 C 127.198 221.938 127.361 221.488 127.491 220.250 C 127.779 217.508 126.863 217.389 124.612 219.876 "/></g>
<g fill="#7D5D44FD" stroke="#7D5D44FD">
<path d="M 195.233 123.535 C 191.459 125.132 191.754 125.499 196.110 124.628 C 197.794 124.291 199.021 123.596 198.836 123.084 C 198.647 122.560 197.072 122.757 195.233 123.535 "/></g>
<g fill="#08050CFD" stroke="#08050CFD">
<path d="M 211.881 289.500 C 211.541 290.050 210.986 292.300 210.648 294.500 C 210.222 297.271 210.306 297.859 210.923 296.415 C 211.966 293.972 212.789 288.032 211.881 289.500 "/></g>
<g fill="#08050CFD" stroke="#08050CFD">
<path d="M 176.000 364.000 C 175.302 365.685 174.964 367.298 175.250 367.583 C 175.535 367.869 176.273 366.656 176.889 364.889 C 178.344 360.715 177.649 360.020 176.000 364.000 "/></g>
<g fill="#08050CFD" stroke="#08050CFD">
<path d="M 242.917 362.807 C 241.410 367.132 241.659 367.559 243.553 363.897 C 244.430 362.201 244.891 360.558 244.578 360.245 C 244.265 359.932 243.518 361.085 242.917 362.807 "/></g>
<g fill="#08050CFD" stroke="#08050CFD">
<path d="M 251.556 336.556 C 250.612 337.995 250.040 339.374 250.285 339.618 C 250.529 339.862 251.501 338.884 252.444 337.444 C 253.388 336.005 253.960 334.626 253.715 334.382 C 253.471 334.138 252.499 335.116 251.556 336.556 "/></g>
<g fill="#08050CFD" stroke="#08050CFD">
<path d="M 205.507 321.011 C 205.843 321.555 205.472 322.000 204.681 322.000 C 203.891 322.000 202.702 322.654 202.038 323.454 C 201.141 324.535 201.783 324.445 204.535 323.107 C 207.421 321.703 207.870 321.164 206.567 320.664 C 205.583 320.287 205.147 320.429 205.507 321.011 "/></g>
<g fill="#08050CFD" stroke="#08050CFD">
<path d="M 268.655 298.368 C 268.241 299.945 268.139 301.472 268.428 301.761 C 269.233 302.566 270.217 299.346 269.789 297.308 C 269.508 295.975 269.210 296.254 268.655 298.368 "/></g>
<g fill="#08050CFD" stroke="#08050CFD">
<path d="M 165.445 279.282 C 167.125 280.811 168.500 281.496 168.500 280.803 C 168.500 280.111 167.898 279.456 167.162 279.348 C 166.427 279.240 165.052 278.555 164.107 277.826 C 163.163 277.097 163.765 277.752 165.445 279.282 "/></g>
<g fill="#08050CFD" stroke="#08050CFD">
<path d="M 213.595 278.297 C 213.136 280.385 213.039 282.372 213.380 282.713 C 213.938 283.271 214.242 281.307 214.382 276.250 C 214.408 275.288 214.054 276.208 213.595 278.297 "/></g>
<g fill="#B1E9E8FD" stroke="#B1E9E8FD">
<path d="M 250.729 310.604 C 250.381 310.953 250.790 311.933 251.638 312.781 C 252.952 314.095 253.307 314.114 254.028 312.912 C 254.564 312.020 254.472 311.611 253.779 311.803 C 253.176 311.969 252.386 311.625 252.023 311.038 C 251.660 310.450 251.078 310.255 250.729 310.604 "/></g>
<g fill="#B1E9E8FD" stroke="#B1E9E8FD">
<path d="M 395.000 290.327 C 395.000 290.752 395.788 292.539 396.750 294.300 C 397.765 296.155 398.356 296.675 398.157 295.536 C 397.809 293.544 395.000 288.909 395.000 290.327 "/></g>
<g fill="#08050CFD" stroke="#08050CFD">
<path d="M 237.111 376.111 C 236.495 377.878 236.166 379.499 236.380 379.713 C 236.594 379.927 237.273 378.656 237.889 376.889 C 238.505 375.122 238.834 373.501 238.620 373.287 C 238.406 373.073 237.727 374.344 237.111 376.111 "/></g>
<g fill="#08050CFD" stroke="#08050CFD">
<path d="M 179.111 356.111 C 178.495 357.878 178.166 359.499 178.380 359.713 C 178.594 359.927 179.273 358.656 179.889 356.889 C 180.505 355.122 180.834 353.501 180.620 353.287 C 180.406 353.073 179.727 354.344 179.111 356.111 "/></g>
<g fill="#08050CFD" stroke="#08050CFD">
<path d="M 199.405 323.299 C 198.803 323.959 198.005 325.351 197.632 326.391 C 197.059 327.990 197.188 328.089 198.466 327.028 C 199.298 326.338 199.786 325.462 199.551 325.082 C 199.316 324.702 199.433 323.875 199.812 323.244 C 200.236 322.537 200.080 322.558 199.405 323.299 "/></g>
<g fill="#08050CFD" stroke="#08050CFD">
<path d="M 258.833 316.833 C 258.452 321.792 258.571 322.325 259.359 319.178 C 259.816 317.352 259.922 315.589 259.595 315.262 C 259.268 314.934 258.925 315.642 258.833 316.833 "/></g>
<g fill="#08050CFD" stroke="#08050CFD">
<path d="M 264.833 313.833 C 264.452 318.792 264.571 319.325 265.359 316.178 C 265.816 314.352 265.922 312.589 265.595 312.262 C 265.268 311.934 264.925 312.642 264.833 313.833 "/></g>
<g fill="#08050CFD" stroke="#08050CFD">
<path d="M 209.570 125.887 C 208.897 126.976 211.797 129.537 212.691 128.643 C 213.044 128.289 212.760 128.000 212.060 128.000 C 211.338 128.000 211.036 127.349 211.362 126.500 C 211.975 124.902 210.492 124.395 209.570 125.887 "/></g>
<g fill="#B1E9E8FD" stroke="#B1E9E8FD">
<path d="M 261.695 296.639 C 260.393 297.941 260.979 299.945 262.492 299.365 C 263.443 299.000 263.695 298.277 263.186 297.368 C 262.748 296.585 262.077 296.257 261.695 296.639 "/></g>
<g fill="#B1E9E8FD" stroke="#B1E9E8FD">
<path d="M 251.674 284.012 C 253.048 285.282 257.320 286.327 256.640 285.227 C 256.304 284.683 254.864 284.016 253.439 283.744 C 252.014 283.471 251.220 283.592 251.674 284.012 "/></g>
<g fill="#08050CFD" stroke="#08050CFD">
<path d="M 218.083 324.359 C 218.313 324.557 219.850 325.021 221.500 325.390 C 223.691 325.880 224.095 325.787 223.000 325.046 C 221.650 324.132 217.080 323.494 218.083 324.359 "/></g>
<g fill="#08050CFD" stroke="#08050CFD">
<path d="M 199.162 294.543 C 197.487 298.220 197.807 299.005 199.618 295.662 C 200.464 294.100 200.969 292.636 200.741 292.407 C 200.512 292.179 199.802 293.140 199.162 294.543 "/></g>
<g fill="#08050CFD" stroke="#08050CFD">
<path d="M 260.382 276.810 C 260.714 277.346 262.193 278.171 263.670 278.642 C 265.905 279.356 265.804 279.193 263.067 277.667 C 261.259 276.659 260.051 276.274 260.382 276.810 "/></g>
<g fill="#08050CFD" stroke="#08050CFD">
<path d="M 158.000 254.000 L 161.000 257.000 158.000 254.000 L 155.000 251.000 158.000 254.000 "/></g>
<g fill="#08050CFD" stroke="#08050CFD">
<path d="M 212.000 131.021 C 210.913 131.708 210.861 131.974 211.809 131.985 C 212.529 131.993 212.864 132.410 212.554 132.912 C 212.244 133.414 212.677 133.724 213.517 133.600 C 214.356 133.477 214.696 133.029 214.272 132.605 C 213.847 132.181 213.500 131.437 213.500 130.953 C 213.500 130.469 212.825 130.500 212.000 131.021 "/></g>
<g fill="#B1E9E8FD" stroke="#B1E9E8FD">
<path d="M 253.000 294.965 C 253.000 295.534 253.450 296.068 254.000 296.150 C 256.967 296.595 257.279 296.360 255.250 295.208 C 253.855 294.415 253.000 294.323 253.000 294.965 "/></g>
<g fill="#B1E9E8FD" stroke="#B1E9E8FD">
<path d="M 251.136 292.167 C 251.061 293.083 250.438 294.060 249.750 294.338 C 249.029 294.629 249.269 294.875 250.320 294.921 C 251.683 294.980 252.030 294.436 251.706 292.750 C 251.452 291.431 251.216 291.190 251.136 292.167 "/></g>
<g fill="#7D5D44FD" stroke="#7D5D44FD">
<path d="M 281.000 140.000 L 284.000 143.000 281.000 140.000 L 278.000 137.000 281.000 140.000 "/></g>
<g fill="#08050CFD" stroke="#08050CFD">
<path d="M 181.636 362.825 C 181.186 364.104 181.083 365.417 181.409 365.742 C 181.945 366.278 182.150 365.433 182.377 361.750 C 182.419 361.063 182.086 361.546 181.636 362.825 "/></g>
<g fill="#08050CFD" stroke="#08050CFD">
<path d="M 255.850 327.333 C 255.509 331.123 255.584 331.392 256.364 329.175 C 256.814 327.896 256.917 326.583 256.591 326.258 C 256.266 325.933 255.933 326.417 255.850 327.333 "/></g>
<g fill="#08050CFD" stroke="#08050CFD">
<path d="M 260.815 306.548 C 260.439 307.124 260.572 308.249 261.109 309.048 C 261.853 310.153 262.017 309.902 261.792 308.000 C 261.630 306.625 261.190 305.971 260.815 306.548 "/></g>
<g fill="#08050CFD" stroke="#08050CFD">
<path d="M 206.999 291.743 C 207.706 294.094 207.841 294.177 207.914 292.309 C 207.961 291.104 207.588 289.863 207.085 289.552 C 206.541 289.216 206.506 290.105 206.999 291.743 "/></g>
<g fill="#08050CFD" stroke="#08050CFD">
<path d="M 178.500 288.477 C 180.234 289.703 180.391 289.699 179.685 288.446 C 179.236 287.651 178.336 287.014 177.685 287.032 C 177.033 287.049 177.400 287.700 178.500 288.477 "/></g>
<g fill="#08050CFD" stroke="#08050CFD">
<path d="M 173.000 284.850 C 174.375 285.941 175.394 286.440 175.264 285.960 C 175.135 285.479 174.010 284.586 172.764 283.976 C 170.721 282.974 170.744 283.059 173.000 284.850 "/></g>
<g fill="#08050CFD" stroke="#08050CFD">
<path d="M 215.169 258.921 C 214.437 260.159 214.045 261.378 214.297 261.631 C 214.550 261.883 215.149 260.870 215.628 259.380 C 216.466 256.776 216.448 256.758 215.169 258.921 "/></g>
<g fill="#08050CFD" stroke="#08050CFD">
<path d="M 145.976 258.764 C 146.586 260.010 147.479 261.135 147.960 261.264 C 148.440 261.394 147.941 260.375 146.850 259.000 C 145.059 256.744 144.974 256.721 145.976 258.764 "/></g>
<g fill="#B1E9E8FD" stroke="#B1E9E8FD">
<path d="M 255.553 312.915 C 255.231 313.436 255.394 314.125 255.915 314.447 C 256.436 314.769 257.125 314.606 257.447 314.085 C 257.769 313.564 257.606 312.875 257.085 312.553 C 256.564 312.231 255.875 312.394 255.553 312.915 "/></g>
<g fill="#687885FD" stroke="#687885FD">
<path d="M 312.718 116.920 L 310.936 118.500 312.718 116.920 L 314.500 115.340 312.718 116.920 "/></g>
<g fill="#7D5D44FD" stroke="#7D5D44FD">
<path d="M 163.500 133.410 L 161.500 135.567 163.500 133.410 L 165.500 131.253 163.500 133.410 "/></g>
<g fill="#7D5D44FD" stroke="#7D5D44FD">
<path d="M 152.500 107.410 L 150.500 109.567 152.500 107.410 L 154.500 105.253 152.500 107.410 "/></g>
<g fill="#7D5D44FD" stroke="#7D5D44FD">
<path d="M 213.500 92.410 L 211.500 94.567 213.500 92.410 L 215.500 90.253 213.500 92.410 "/></g>
<g fill="#180500FD" stroke="#180500FD">
<path d="M 205.500 174.410 L 203.500 176.567 205.500 174.410 L 207.500 172.253 205.500 174.410 "/></g>
</svg>
